<svg xmlns="http://www.w3.org/2000/svg" xmlns:xlink="http://www.w3.org/1999/xlink" width="500" zoomAndPan="magnify" viewBox="0 0 375 374.999991" height="500" preserveAspectRatio="xMidYMid meet" version="1.0"><defs><clipPath id="id1"><path d="M 58.636719 148 L 316 148 L 316 373 L 58.636719 373 Z M 58.636719 148 " clip-rule="nonzero"/></clipPath></defs><path fill="rgb(100%, 100%, 100%)" d="M 180.617188 147.378906 C 188.648438 141.207031 208.886719 138.429688 217.539062 144.449219 C 226.035156 150.3125 226.964844 160.035156 230.980469 168.832031 C 234.6875 167.132812 240.867188 169.601562 241.949219 173 C 243.339844 174.695312 243.339844 179.171875 244.265625 181.484375 C 284.589844 187.96875 290.613281 219.296875 295.558594 254.945312 C 302.046875 291.054688 316.570312 327.167969 310.234375 364.359375 C 311.007812 365.59375 311.777344 366.671875 312.242188 368.0625 C 313.632812 370.53125 311.777344 373.925781 309 373.773438 C 305.289062 373.464844 301.582031 373 297.71875 372.847656 C 287.214844 372.539062 276.710938 372.539062 266.359375 372.691406 L 264.96875 372.691406 C 212.285156 373.308594 159.449219 374.699219 106.769531 375.007812 C 104.914062 375.007812 103.988281 373.308594 104.144531 371.613281 C 104.605469 368.214844 105.070312 364.820312 105.6875 361.425781 C 93.175781 364.667969 79.886719 365.59375 67.527344 361.734375 C 66.601562 360.808594 69.539062 361.273438 70 361.117188 C 58.566406 353.246094 61.96875 336.890625 63.046875 325.007812 C 69.382812 284.417969 71.546875 239.355469 95.957031 204.632812 C 105.996094 190.4375 121.601562 179.324219 139.210938 176.703125 L 139.675781 176.703125 C 144.929688 176.085938 150.644531 175.777344 155.125 173 C 160.222656 168.984375 162.386719 161.425781 167.792969 161.269531 C 169.492188 161.269531 171.964844 163.429688 174.589844 164.972656 C 174.746094 161.578125 176.597656 158.800781 177.0625 156.175781 L 177.0625 156.023438 C 177.527344 152.9375 177.0625 150.3125 180.617188 147.378906 Z M 267.132812 255.871094 C 255.851562 248 226.5 252.011719 225.882812 252.472656 C 224.335938 253.398438 223.71875 253.554688 222.945312 254.789062 C 222.175781 254.945312 221.402344 254.945312 220.628906 255.097656 C 219.085938 255.5625 220.164062 257.566406 222.019531 256.796875 C 220.9375 261.578125 224.183594 264.820312 225.417969 269.605469 C 225.882812 271.148438 225.417969 273.769531 225.417969 275.46875 C 225.574219 277.476562 227.734375 279.789062 227.425781 281.796875 C 226.191406 288.894531 219.085938 295.683594 222.019531 302.476562 C 224.027344 306.332031 229.898438 308.339844 233.761719 309.574219 C 241.949219 312.660156 256.007812 309.417969 260.796875 302.476562 C 263.269531 298.769531 266.203125 289.359375 267.75 286.425781 L 268.058594 281.796875 C 268.984375 270.066406 269.601562 257.566406 267.132812 255.871094 Z M 267.132812 255.871094 " fill-opacity="1" fill-rule="evenodd"/><g clip-path="url(#id1)"><path fill="rgb(77.249146%, 18.818665%, 18.818665%)" d="M 165.941406 160.652344 C 166.710938 160.035156 167.949219 160.808594 167.328125 161.734375 C 166.25 163.894531 165.011719 165.898438 163.621094 167.75 C 162.695312 168.832031 161.769531 169.910156 160.6875 170.992188 C 163.160156 173.152344 165.320312 175.929688 167.484375 178.398438 C 170.109375 181.640625 172.582031 185.035156 175.519531 187.96875 C 178.453125 190.898438 181.699219 192.90625 185.558594 194.292969 L 186.332031 194.601562 C 190.195312 195.992188 194.367188 197.84375 196.527344 201.546875 C 196.992188 202.320312 196.066406 203.246094 195.292969 202.78125 C 191.429688 200.46875 186.949219 200.003906 182.777344 198.460938 C 178.761719 196.917969 175.210938 194.601562 172.121094 191.671875 C 169.03125 188.738281 166.402344 185.34375 163.777344 182.101562 C 161.152344 178.863281 158.214844 176.085938 155.125 173.308594 C 150.179688 176.546875 144.621094 177.9375 139.058594 179.480469 L 138.59375 179.324219 C 132.878906 180.714844 127.316406 182.410156 121.910156 184.726562 C 117.273438 186.886719 112.640625 189.511719 108.777344 192.90625 C 104.761719 196.609375 101.515625 201.394531 98.734375 206.023438 C 92.246094 216.363281 87.765625 227.78125 83.75 239.355469 C 79.578125 251.394531 76.179688 263.585938 73.246094 275.929688 C 71.855469 282.257812 70.617188 288.585938 69.691406 294.914062 C 69.226562 298 68.765625 301.085938 68.457031 304.171875 C 68.148438 307.414062 67.992188 310.808594 66.910156 314.050781 C 66.449219 315.4375 65.519531 315.902344 64.4375 315.902344 L 64.285156 318.523438 C 63.976562 321.917969 63.820312 325.46875 63.667969 329.019531 C 63.511719 334.882812 63.511719 340.59375 63.976562 346.457031 L 63.976562 347.230469 C 64.285156 351.394531 65.058594 356.179688 68.148438 359.265625 C 71.390625 362.507812 76.488281 363.433594 80.96875 363.585938 C 91.320312 363.742188 101.207031 358.800781 110.476562 354.480469 C 119.902344 350.007812 129.015625 345.222656 137.976562 339.820312 C 142.457031 337.042969 147.089844 334.265625 151.417969 331.488281 C 153.582031 330.097656 155.742188 328.710938 157.90625 327.167969 C 159.140625 326.394531 160.378906 325.46875 161.613281 324.699219 C 160.996094 324.082031 160.6875 323.152344 161.304688 322.382812 C 157.75 319.296875 156.207031 313.585938 156.050781 309.109375 C 155.898438 305.40625 156.515625 301.859375 156.824219 298.152344 C 156.980469 296.300781 157.289062 294.449219 157.597656 292.597656 C 157.75 291.828125 157.75 291.054688 157.90625 290.285156 C 148.171875 295.683594 137.976562 300.46875 127.625 304.636719 C 122.527344 307.105469 117.121094 309.109375 111.714844 310.808594 L 110.632812 311.117188 C 105.535156 312.816406 100.125 314.359375 94.875 315.285156 C 94.566406 315.285156 94.410156 314.976562 94.71875 314.820312 C 99.972656 312.507812 105.226562 310.652344 110.632812 308.492188 L 111.558594 308.183594 C 111.40625 308.183594 111.40625 308.183594 111.25 308.183594 C 108.160156 307.414062 105.070312 306.332031 102.136719 305.253906 C 99.355469 304.328125 96.109375 303.863281 93.484375 302.476562 C 93.328125 302.320312 93.328125 302.167969 93.636719 302.011719 C 96.574219 301.859375 99.816406 302.628906 102.753906 303.246094 L 103.835938 303.402344 C 105.6875 303.710938 107.542969 304.019531 109.394531 304.480469 C 109.394531 303.863281 109.859375 303.246094 110.324219 302.9375 C 115.574219 298.925781 115.113281 291.054688 115.730469 285.191406 L 116.195312 280.871094 C 116.964844 273.308594 117.738281 265.59375 118.972656 258.03125 C 118.972656 257.566406 119.59375 257.722656 119.59375 258.183594 C 119.128906 267.597656 118.511719 276.855469 118.046875 286.269531 L 118.046875 287.8125 C 117.894531 293.523438 117.738281 299.542969 114.03125 304.019531 C 114.492188 303.710938 115.265625 303.710938 115.574219 304.171875 C 116.039062 304.789062 116.347656 305.40625 116.347656 306.179688 C 119.59375 304.789062 122.835938 303.402344 126.234375 302.011719 C 136.742188 297.382812 146.9375 292.136719 156.980469 286.578125 C 158.0625 285.960938 159.140625 286.425781 159.605469 287.195312 C 160.996094 286.425781 162.851562 287.042969 164.085938 288.121094 C 164.085938 288.121094 164.085938 288.121094 164.238281 288.277344 C 165.785156 287.660156 167.175781 286.734375 168.410156 285.5 C 171.039062 283.03125 173.355469 280.097656 175.210938 277.167969 C 178.761719 271.765625 181.851562 265.59375 186.796875 261.117188 C 190.8125 257.414062 195.601562 255.097656 200.855469 253.710938 C 200.855469 253.554688 200.855469 253.398438 201.007812 253.246094 C 201.316406 252.9375 201.472656 252.9375 201.78125 253.089844 L 202.246094 252.164062 C 202.554688 251.703125 202.863281 251.238281 202.863281 251.085938 C 203.480469 250.3125 204.097656 249.695312 204.71875 248.925781 C 205.796875 247.691406 206.878906 246.457031 208.269531 245.683594 C 211.207031 243.832031 214.449219 244.914062 217.539062 245.839844 C 219.394531 246.457031 221.246094 247.074219 223.101562 247.691406 L 223.253906 247.691406 C 224.644531 248.152344 226.191406 248.460938 226.808594 250.003906 C 227.117188 250.621094 227.117188 251.238281 226.964844 251.703125 C 240.09375 248.308594 254.617188 249.851562 267.441406 253.863281 C 267.902344 254.019531 268.367188 254.480469 268.523438 254.945312 C 269.910156 262.503906 270.683594 270.222656 269.910156 277.785156 C 269.292969 284.417969 267.902344 290.902344 265.121094 296.917969 L 264.96875 297.226562 C 262.34375 302.785156 258.324219 309.726562 251.992188 311.425781 C 248.128906 312.507812 243.957031 311.886719 240.09375 311.734375 C 236.386719 311.578125 232.523438 311.578125 228.816406 310.960938 C 225.574219 310.5 222.636719 308.957031 220.628906 306.332031 C 218.929688 304.019531 218.003906 301.242188 217.230469 298.460938 C 216.921875 298.617188 216.613281 298.617188 216.148438 298.769531 C 214.757812 299.386719 213.523438 300.3125 212.441406 301.242188 C 210.125 303.554688 208.269531 306.179688 205.796875 308.339844 C 203.636719 310.34375 201.007812 311.734375 198.382812 312.96875 C 192.820312 315.4375 186.796875 316.363281 180.925781 317.597656 L 180.460938 317.753906 C 175.980469 318.679688 171.5 319.914062 167.484375 322.226562 C 167.484375 322.84375 167.019531 323.617188 166.558594 323.925781 C 167.175781 324.542969 167.484375 325.625 166.867188 326.550781 C 165.167969 329.171875 162.230469 330.714844 159.605469 332.566406 L 159.449219 332.722656 C 156.824219 334.417969 154.199219 336.117188 151.570312 337.816406 C 146.164062 341.210938 140.757812 344.296875 135.195312 347.382812 C 126.234375 352.167969 117.273438 356.796875 108.003906 360.964844 C 108.625 363.742188 108.316406 366.519531 108.777344 369.296875 L 108.777344 369.757812 C 108.933594 370.839844 108.777344 371.613281 108.003906 372.230469 C 107.851562 372.230469 107.851562 372.382812 107.695312 372.382812 L 107.542969 372.382812 C 106.925781 372.847656 105.996094 372.847656 105.226562 372.382812 L 104.914062 372.382812 C 103.988281 371.921875 103.371094 370.53125 103.679688 369.449219 C 104.605469 366.828125 104.914062 364.203125 105.84375 361.582031 L 105.226562 361.890625 L 104.296875 362.351562 C 94.566406 366.519531 83.75 370.066406 73.089844 367.289062 C 68.457031 366.054688 63.976562 363.277344 61.660156 358.957031 C 59.339844 354.636719 59.03125 349.699219 58.878906 344.914062 C 58.722656 339.050781 59.03125 333.03125 59.804688 327.167969 C 60.269531 323.152344 60.886719 319.296875 61.96875 315.285156 C 61.503906 314.820312 61.039062 314.203125 61.039062 313.433594 C 60.578125 309.726562 61.347656 305.871094 61.8125 302.167969 C 62.277344 298.617188 62.894531 294.914062 63.359375 291.363281 C 64.59375 284.109375 65.984375 276.859375 67.683594 269.757812 C 70.617188 256.949219 74.480469 244.449219 79.117188 232.257812 L 79.578125 231.179688 C 83.90625 219.914062 88.847656 209.109375 95.800781 199.234375 C 99.199219 194.601562 102.597656 190.28125 107.386719 186.886719 C 111.714844 183.648438 116.8125 181.484375 121.910156 179.632812 C 127.007812 177.9375 132.261719 176.703125 137.667969 175.929688 C 143.074219 175.160156 148.792969 174.695312 153.890625 172.535156 C 153.269531 171.457031 153.734375 169.757812 154.816406 169.140625 C 159.296875 166.671875 162.695312 163.429688 165.941406 160.652344 Z M 282.425781 264.972656 C 282.582031 264.820312 282.890625 264.820312 282.890625 265.128906 C 281.191406 272.382812 279.492188 279.636719 278.410156 287.042969 C 276.402344 300.3125 276.863281 313.894531 277.019531 327.320312 L 277.019531 327.9375 C 277.171875 335.191406 277.171875 342.445312 277.480469 349.699219 C 277.636719 353.402344 277.792969 357.105469 277.636719 360.65625 C 277.636719 362.660156 277.019531 364.511719 276.863281 366.519531 C 276.710938 368.214844 276.863281 369.914062 276.863281 371.613281 C 276.863281 372.691406 275.164062 372.691406 275.164062 371.613281 L 275.011719 370.222656 C 274.855469 368.371094 274.546875 366.671875 273.929688 364.976562 C 273.15625 362.96875 272.847656 360.964844 272.691406 358.800781 C 272.382812 355.5625 272.074219 352.167969 272.074219 348.773438 L 271.921875 346.457031 C 271.300781 332.566406 271.300781 318.523438 272.382812 304.636719 L 272.382812 303.710938 C 273.3125 290.4375 275.011719 276.238281 282.425781 264.972656 Z M 244.730469 182.101562 C 244.265625 181.949219 244.421875 181.175781 244.882812 181.332031 L 245.8125 181.484375 C 252.609375 183.183594 259.253906 184.882812 265.742188 187.96875 C 272.074219 191.054688 277.480469 195.53125 281.808594 201.085938 C 290.152344 211.886719 293.550781 225.160156 296.328125 238.277344 C 299.417969 252.9375 302.199219 267.597656 305.136719 282.257812 L 305.753906 285.035156 C 308.535156 298.617188 311.316406 312.351562 313.167969 326.085938 L 313.324219 327.011719 C 315.332031 341.210938 316.570312 355.871094 314.40625 370.066406 C 313.941406 372.847656 309.308594 372.230469 309.460938 369.449219 C 309.925781 361.425781 310.390625 353.402344 310.078125 345.375 C 309.769531 337.351562 309 329.328125 307.761719 321.300781 C 306.835938 314.511719 305.445312 308.03125 304.210938 301.242188 L 304.054688 300.160156 C 302.972656 294.449219 301.890625 288.894531 300.808594 283.183594 L 299.265625 274.695312 C 296.792969 262.042969 294.320312 249.234375 291.539062 236.734375 L 291.386719 235.960938 C 288.605469 223.769531 284.589844 211.117188 276.554688 201.546875 C 268.210938 191.824219 256.316406 186.886719 244.730469 182.101562 Z M 214.605469 310.808594 C 214.757812 310.34375 215.53125 310.34375 215.6875 310.808594 C 216.457031 312.351562 216.613281 314.359375 216.765625 316.054688 L 216.765625 316.210938 C 216.921875 318.371094 217.074219 320.53125 217.230469 322.691406 C 217.386719 326.703125 217.539062 330.871094 217.539062 334.882812 C 217.539062 339.050781 217.386719 343.214844 217.230469 347.382812 L 217.230469 348.464844 C 217.074219 352.011719 216.613281 356.179688 214.914062 359.265625 C 214.296875 360.347656 212.597656 360.039062 212.285156 358.957031 C 211.050781 355.097656 211.667969 350.625 211.976562 346.765625 L 212.285156 343.679688 C 212.597656 340.59375 212.75 337.660156 212.90625 334.574219 C 213.214844 330.40625 213.367188 326.242188 213.523438 322.074219 C 213.523438 320.683594 213.675781 319.296875 213.675781 318.0625 L 213.832031 316.054688 C 213.988281 314.203125 213.988281 312.351562 214.605469 310.808594 Z M 81.433594 316.210938 L 81.898438 315.746094 C 83.441406 314.203125 85.605469 311.734375 87.921875 311.886719 C 88.847656 311.886719 89.464844 312.660156 89.3125 313.742188 C 88.847656 315.746094 86.839844 316.828125 85.449219 318.0625 C 83.90625 319.449219 82.359375 320.839844 80.816406 322.226562 C 79.425781 323.460938 78.1875 324.851562 76.953125 326.242188 L 76.488281 326.703125 C 76.027344 327.167969 72.78125 330.097656 73.246094 330.871094 C 73.398438 331.023438 73.246094 331.179688 73.089844 331.179688 C 71.699219 330.714844 71.855469 329.480469 72.316406 328.402344 C 73.398438 326.085938 75.097656 323.925781 76.644531 321.917969 C 78.035156 319.757812 79.578125 317.90625 81.433594 316.210938 Z M 219.703125 258.183594 C 218.621094 255.714844 214.605469 255.714844 212.441406 255.871094 C 206.726562 256.179688 200.699219 257.722656 195.601562 260.34375 C 190.347656 263.121094 186.949219 267.445312 183.707031 272.226562 L 183.550781 272.382812 C 180.460938 277.167969 177.527344 282.722656 172.738281 285.960938 C 170.265625 287.660156 167.484375 289.203125 164.550781 289.820312 C 164.394531 290.128906 164.085938 290.4375 163.621094 290.59375 L 163.46875 290.59375 C 162.695312 290.746094 161.304688 291.054688 160.222656 290.902344 C 160.222656 291.519531 160.222656 291.980469 160.222656 292.597656 C 160.222656 294.140625 160.222656 295.683594 160.222656 297.074219 C 160.222656 300.160156 160.070312 303.402344 160.222656 306.488281 C 160.378906 309.265625 160.6875 312.199219 162.078125 314.667969 C 163.003906 316.519531 164.394531 317.753906 165.941406 318.832031 C 169.800781 316.519531 174.128906 315.128906 178.609375 314.050781 C 184.015625 312.816406 189.421875 311.886719 194.675781 310.191406 C 197.148438 309.417969 199.617188 308.183594 201.78125 306.796875 C 204.097656 305.253906 205.953125 303.09375 207.652344 300.933594 L 207.960938 300.625 C 209.816406 298.460938 211.824219 296.457031 214.449219 295.222656 C 216.765625 294.296875 219.703125 293.988281 221.710938 292.445312 C 222.792969 291.671875 222.792969 290.4375 222.945312 289.203125 C 221.710938 289.359375 220.320312 289.050781 219.085938 288.894531 L 218.464844 288.894531 C 217.230469 288.742188 216.148438 288.585938 214.914062 288.277344 C 214.757812 288.277344 214.757812 287.8125 214.914062 287.8125 C 216.304688 287.503906 217.695312 287.351562 219.085938 287.195312 L 219.394531 287.195312 C 220.628906 287.042969 222.019531 286.734375 223.253906 287.042969 C 223.410156 286.117188 223.875 285.34375 224.335938 284.574219 C 224.957031 283.339844 226.191406 282.105469 226.34375 280.714844 C 226.34375 280.253906 226.34375 279.789062 226.035156 279.480469 L 226.035156 279.328125 C 225.882812 279.171875 225.882812 279.019531 225.726562 279.019531 C 225.726562 279.019531 225.726562 279.019531 225.574219 279.019531 C 224.644531 279.328125 223.71875 278.863281 223.253906 278.09375 C 221.246094 278.402344 219.238281 278.402344 217.386719 278.402344 L 215.53125 278.554688 C 213.523438 278.710938 211.515625 278.710938 209.816406 278.246094 C 209.507812 278.246094 209.507812 277.785156 209.816406 277.628906 C 212.132812 276.703125 214.757812 276.394531 217.230469 275.929688 C 218.621094 275.777344 219.855469 275.621094 221.246094 275.3125 C 222.175781 275.160156 223.101562 275.003906 224.027344 275.003906 C 226.34375 272.074219 225.109375 267.597656 221.867188 266.363281 C 220.628906 266.828125 219.703125 266.519531 218.3125 266.519531 C 217.074219 266.363281 215.6875 266.363281 214.449219 266.363281 C 211.824219 266.363281 209.195312 266.980469 206.570312 266.828125 C 206.105469 266.828125 205.796875 266.210938 206.105469 265.902344 C 208.117188 264.355469 210.898438 263.738281 213.367188 263.429688 L 213.832031 263.429688 C 214.605469 263.277344 215.6875 263.121094 216.765625 263.121094 C 217.078125 262.660156 217.386719 262.351562 218.003906 262.195312 C 218.15625 262.195312 218.3125 262.195312 218.621094 262.195312 C 220.164062 261.886719 220.164062 259.265625 219.703125 258.183594 Z M 112.640625 307.566406 C 112.484375 307.722656 112.484375 307.722656 112.640625 307.566406 L 112.484375 307.722656 Z M 246.894531 252.628906 C 240.25 251.855469 233.761719 252.011719 227.117188 252.320312 C 226.65625 254.019531 224.800781 255.5625 222.945312 255.5625 C 224.335938 257.722656 224.492188 260.5 223.566406 262.8125 C 225.574219 263.585938 227.425781 265.128906 228.507812 267.289062 C 230.054688 270.222656 229.746094 273.460938 228.355469 276.238281 C 229.589844 277.320312 230.363281 279.328125 230.363281 281.023438 C 230.207031 283.03125 229.125 284.726562 228.199219 286.269531 C 227.117188 287.96875 227.117188 289.511719 226.808594 291.519531 C 226.34375 294.449219 224.335938 296.148438 221.867188 297.226562 L 222.019531 297.691406 C 222.636719 300.160156 223.410156 302.785156 225.265625 304.636719 C 227.582031 306.949219 231.289062 306.949219 234.378906 307.105469 L 234.535156 307.105469 C 237.46875 307.257812 240.25 307.414062 243.183594 307.566406 L 245.195312 307.722656 C 248.4375 307.875 251.683594 307.875 254.308594 305.714844 C 258.632812 302.167969 261.722656 296.300781 263.578125 291.054688 C 267.59375 280.097656 267.59375 268.0625 265.742188 256.640625 C 259.871094 254.636719 253.382812 253.246094 246.894531 252.628906 Z M 192.203125 270.683594 C 193.59375 270.839844 194.519531 271.917969 194.828125 273.308594 C 195.292969 275.160156 195.136719 276.855469 196.21875 278.554688 C 197.457031 280.253906 198.074219 281.640625 198.382812 283.957031 C 198.382812 284.882812 198.382812 285.808594 198.691406 286.578125 L 198.847656 287.195312 C 199 287.8125 199.15625 288.429688 199 289.203125 C 199 289.820312 198.691406 290.285156 197.917969 290.59375 C 195.757812 291.210938 194.210938 289.667969 193.746094 287.8125 C 193.285156 286.117188 193.902344 284.109375 193.285156 282.566406 C 192.976562 281.640625 192.203125 281.023438 191.894531 280.097656 C 191.585938 279.171875 191.277344 278.246094 191.277344 277.320312 C 191.121094 275.46875 192.820312 273.308594 191.894531 271.765625 C 191.585938 271.300781 191.738281 270.683594 192.203125 270.683594 Z M 164.394531 252.164062 C 165.785156 251.855469 167.484375 251.238281 168.875 251.703125 C 169.648438 252.011719 169.957031 252.78125 169.339844 253.398438 C 168.257812 254.480469 166.710938 254.480469 165.320312 254.789062 L 165.167969 254.789062 C 163.46875 255.097656 161.769531 255.40625 160.070312 255.714844 C 156.980469 256.179688 153.734375 256.640625 150.492188 257.105469 C 147.246094 257.566406 144 257.875 140.601562 258.183594 L 139.523438 258.339844 C 136.742188 258.492188 133.804688 258.800781 131.179688 258.339844 C 130.714844 258.339844 130.871094 257.722656 131.179688 257.566406 C 134.113281 256.640625 137.359375 256.488281 140.449219 256.023438 C 143.691406 255.5625 146.9375 255.253906 150.179688 254.636719 C 153.425781 254.171875 156.671875 253.554688 159.914062 252.9375 C 161.460938 252.78125 163.003906 252.472656 164.394531 252.164062 Z M 215.53125 249.386719 C 214.296875 248.925781 212.90625 248.308594 211.515625 248.460938 C 209.195312 248.769531 207.1875 251.085938 205.335938 252.628906 L 206.261719 252.472656 C 211.050781 251.546875 217.230469 250.621094 221.246094 253.554688 C 221.554688 253.089844 221.867188 252.628906 222.328125 252.320312 C 222.328125 252.320312 222.328125 252.320312 222.484375 252.164062 L 222.636719 251.855469 L 222.175781 251.703125 C 221.09375 251.394531 219.855469 250.777344 219.703125 250.777344 C 218.3125 250.3125 216.921875 249.851562 215.53125 249.386719 Z M 176.753906 150.46875 C 176.597656 147.996094 180.460938 147.996094 180.617188 150.46875 C 181.078125 155.867188 179.84375 161.269531 177.21875 165.898438 C 177.21875 165.898438 177.21875 165.898438 177.21875 166.054688 C 178.917969 166.980469 180.460938 167.75 182.160156 168.523438 C 184.324219 169.449219 186.488281 170.375 188.804688 170.992188 C 190.8125 171.609375 193.285156 171.917969 194.984375 173.308594 C 198.539062 176.238281 197.300781 182.101562 196.527344 185.960938 L 196.375 186.578125 C 196.066406 188.585938 195.757812 190.589844 196.683594 192.441406 C 197.609375 194.449219 199.308594 195.992188 201.007812 197.382812 L 201.316406 197.691406 C 202.707031 198.925781 204.40625 200.621094 205.488281 202.320312 C 206.417969 200.3125 207.808594 198.769531 209.195312 196.917969 C 210.125 195.683594 209.507812 195.222656 208.734375 193.984375 C 208.117188 192.75 207.652344 191.515625 207.960938 190.128906 C 208.425781 187.503906 210.433594 185.652344 212.441406 184.265625 C 214.914062 182.566406 217.539062 181.332031 220.011719 179.789062 C 225.109375 176.703125 230.207031 173 234.6875 168.984375 C 234.84375 168.832031 234.996094 168.984375 234.996094 169.140625 C 231.445312 174.542969 227.273438 179.171875 222.175781 183.183594 C 220.164062 184.726562 217.847656 186.117188 215.6875 187.503906 L 215.066406 187.96875 C 214.140625 188.585938 213.058594 189.355469 212.75 190.28125 C 212.285156 191.207031 213.214844 191.980469 213.675781 192.75 C 215.066406 195.375 214.449219 197.691406 212.75 199.851562 L 212.597656 200.003906 C 210.898438 202.164062 209.507812 204.171875 208.886719 206.796875 C 207.34375 212.8125 209.195312 218.988281 211.207031 224.386719 L 211.359375 224.542969 C 212.441406 227.472656 213.523438 230.40625 214.449219 233.492188 L 214.757812 234.265625 C 215.53125 237.042969 216.304688 239.820312 215.375 242.597656 C 215.066406 243.523438 213.675781 243.832031 213.214844 242.90625 C 211.359375 239.664062 210.742188 235.808594 209.660156 232.257812 C 208.425781 228.863281 207.1875 225.46875 205.953125 222.074219 C 204.5625 217.597656 203.480469 212.8125 204.097656 208.183594 C 204.097656 208.183594 204.097656 208.183594 204.097656 208.03125 L 203.480469 207.414062 C 202.398438 205.25 201.472656 203.246094 199.617188 201.546875 C 197.765625 199.695312 195.601562 198.152344 194.058594 195.839844 C 190.8125 191.054688 192.820312 185.652344 193.128906 180.40625 L 193.128906 179.789062 C 193.128906 178.707031 193.285156 177.164062 192.511719 176.394531 C 191.738281 175.46875 189.886719 175.3125 188.804688 175.003906 C 186.023438 174.078125 183.242188 172.84375 180.769531 171.453125 C 178.300781 170.21875 175.980469 168.675781 173.664062 166.980469 L 172.582031 166.054688 C 170.730469 164.664062 169.03125 163.277344 167.792969 161.425781 C 167.640625 161.269531 167.949219 160.808594 168.101562 160.960938 C 170.109375 161.734375 171.964844 163.121094 173.820312 164.203125 C 173.820312 164.203125 173.820312 164.046875 173.972656 164.046875 C 176.136719 159.882812 177.0625 155.25 176.753906 150.46875 Z M 240.40625 179.015625 C 241.175781 176.855469 244.882812 177.011719 244.730469 179.632812 C 244.574219 181.640625 243.804688 183.339844 243.03125 185.191406 L 242.875 185.34375 C 242.105469 187.195312 241.175781 189.046875 240.09375 190.746094 C 237.933594 193.984375 235.460938 197.074219 232.835938 200.003906 C 230.515625 202.628906 227.273438 204.171875 223.71875 204.015625 C 222.175781 203.863281 220.628906 203.554688 219.394531 202.78125 C 217.847656 201.855469 216.148438 199.234375 214.140625 199.851562 C 213.988281 199.851562 213.832031 199.695312 213.988281 199.542969 C 216.304688 197.691406 218.929688 200.621094 221.246094 201.238281 C 224.644531 202.320312 228.046875 201.085938 230.207031 198.460938 C 232.523438 195.683594 234.535156 192.441406 236.386719 189.355469 C 237.316406 187.8125 238.242188 186.117188 239.015625 184.417969 C 239.632812 182.566406 239.785156 180.714844 240.40625 179.015625 Z M 234.996094 165.746094 C 234.84375 165.4375 235.304688 165.128906 235.460938 165.28125 C 237.003906 166.207031 238.242188 167.597656 239.785156 168.675781 C 241.332031 169.910156 242.875 171.144531 244.574219 172.382812 C 246.894531 174.234375 244.265625 177.472656 242.105469 175.46875 C 239.324219 173 236.234375 169.449219 234.996094 165.746094 Z M 226.5 155.097656 C 227.117188 152.628906 230.824219 153.707031 230.207031 156.023438 C 229.125 159.882812 230.671875 163.894531 233.761719 166.515625 L 233.914062 166.671875 C 235.925781 168.214844 233.144531 170.992188 231.136719 169.449219 C 226.964844 166.054688 225.265625 160.34375 226.5 155.097656 Z M 226.5 155.097656 " fill-opacity="1" fill-rule="evenodd"/></g><path fill="rgb(100%, 100%, 100%)" d="M 258.535156 78.847656 C 257.300781 69.125 253.4375 58.9375 249.421875 49.988281 C 240.460938 31.007812 219.757812 28.382812 201.375 24.371094 C 183.144531 21.746094 163.832031 19.277344 145.910156 24.679688 C 135.871094 27.148438 131.851562 39.183594 133.398438 48.597656 C 134.324219 54.464844 136.949219 60.019531 139.269531 65.574219 C 143.902344 76.839844 146.683594 88.878906 146.683594 101.070312 C 146.375 109.09375 145.292969 118.042969 154.410156 121.4375 C 163.214844 125.605469 163.988281 137.335938 174.957031 144.125 C 179.4375 153.074219 191.332031 153.847656 199.984375 155.851562 C 205.390625 156.933594 210.953125 157.703125 216.515625 158.167969 C 232.582031 160.175781 245.402344 155.542969 253.746094 141.347656 C 259.308594 132.703125 263.480469 122.671875 262.550781 112.027344 C 261.46875 100.914062 259.769531 89.957031 258.535156 78.847656 Z M 258.535156 78.847656 " fill-opacity="1" fill-rule="evenodd"/><path fill="rgb(77.249146%, 18.818665%, 18.818665%)" d="M 201.527344 1.222656 C 202.457031 0.140625 203.84375 0.605469 204.773438 1.375 C 205.390625 1.53125 205.855469 1.839844 206.316406 2.148438 C 207.398438 1.992188 208.636719 1.992188 209.871094 1.992188 C 210.179688 1.839844 210.488281 1.683594 210.796875 1.53125 C 213.113281 0.757812 215.125 1.066406 216.824219 2.300781 C 217.59375 1.53125 218.675781 1.066406 219.914062 1.066406 C 220.992188 1.066406 221.921875 1.683594 222.539062 2.457031 C 223.3125 1.375 224.394531 0.757812 225.785156 0.605469 C 227.792969 0.449219 229.644531 1.222656 231.191406 2.457031 C 232.117188 1.375 233.351562 0.757812 234.742188 0.757812 C 235.671875 0.605469 236.597656 0.605469 237.523438 0.914062 C 238.761719 1.222656 239.84375 1.992188 240.769531 2.917969 C 242.160156 1.53125 243.859375 0.605469 245.867188 0.757812 C 248.492188 0.914062 250.5 2.765625 251.582031 5.234375 C 253.28125 6.003906 254.980469 6.933594 256.21875 8.320312 C 256.21875 8.320312 256.371094 8.476562 256.371094 8.628906 C 257.144531 8.9375 257.761719 9.246094 258.382812 9.710938 C 260.234375 11.253906 260.699219 13.566406 260.082031 15.882812 C 260.234375 16.191406 260.234375 16.652344 260.234375 16.960938 C 262.089844 17.269531 263.632812 18.199219 264.558594 19.894531 C 265.796875 22.210938 265.640625 25.140625 264.25 27.457031 C 263.632812 28.382812 262.859375 29.152344 262.089844 29.925781 C 263.015625 32.085938 262.550781 34.710938 261.007812 36.40625 C 260.699219 37.023438 260.234375 37.488281 259.617188 38.105469 C 260.234375 40.265625 259.152344 42.582031 257.144531 43.816406 L 256.992188 44.277344 C 256.992188 44.277344 256.992188 44.433594 256.835938 44.433594 C 256.835938 44.585938 256.835938 44.585938 256.835938 44.742188 C 256.835938 45.511719 256.527344 46.285156 256.0625 47.054688 C 254.980469 48.597656 253.746094 49.523438 252.972656 51.222656 L 252.972656 51.375 C 252.664062 52.148438 251.738281 52.765625 250.964844 52.457031 C 255.445312 61.871094 257.917969 72.210938 259.617188 82.394531 C 260.390625 87.488281 261.007812 92.582031 261.625 97.671875 L 262.089844 102.765625 C 262.550781 107.242188 262.859375 111.871094 262.859375 116.347656 C 262.859375 126.6875 259.925781 136.5625 253.589844 144.742188 C 247.566406 152.457031 239.222656 158.011719 229.644531 160.328125 C 219.757812 162.644531 208.171875 161.71875 199.367188 156.46875 C 196.738281 154.925781 199.054688 151.222656 201.683594 152.457031 C 206.78125 154.773438 211.878906 156.46875 217.441406 156.933594 C 222.847656 157.242188 228.253906 156.625 233.507812 154.925781 C 242.003906 151.839844 249.265625 145.667969 253.902344 137.953125 C 256.21875 134.246094 257.917969 130.082031 258.691406 125.761719 C 259.769531 120.359375 259.617188 114.804688 259.152344 109.246094 L 259.152344 108.9375 C 258.382812 98.445312 257.300781 87.796875 255.601562 77.304688 C 254.054688 68.042969 251.738281 59.09375 248.800781 50.140625 C 247.566406 49.0625 246.332031 48.289062 244.941406 47.671875 C 234.589844 47.210938 224.238281 47.363281 214.042969 48.136719 C 205.234375 48.753906 196.429688 49.832031 187.777344 51.222656 L 186.851562 51.53125 C 184.996094 51.839844 182.835938 51.992188 180.980469 52.765625 C 179.4375 53.382812 178.816406 54.773438 178.355469 56.316406 C 177.425781 60.328125 177.273438 64.648438 177.117188 68.660156 C 176.964844 72.671875 177.273438 76.6875 176.964844 80.699219 C 176.808594 83.9375 175.882812 87.332031 173.410156 89.804688 C 172.175781 91.039062 170.476562 91.808594 169.085938 92.734375 C 168.15625 93.351562 167.695312 93.96875 167.847656 95.203125 C 168.15625 97.671875 170.167969 100.914062 167.847656 102.921875 C 167.386719 103.230469 166.769531 103.382812 166.304688 102.921875 C 165.378906 101.839844 164.140625 101.070312 162.90625 100.296875 C 162.441406 99.988281 162.75 99.371094 163.367188 99.523438 C 163.988281 99.832031 164.757812 100.144531 165.53125 100.453125 C 163.988281 99.214844 161.667969 98.445312 159.816406 98.136719 C 158.886719 97.980469 157.808594 97.828125 156.878906 97.980469 C 156.109375 98.289062 155.335938 98.597656 154.71875 98.90625 C 153.789062 99.371094 152.863281 99.679688 151.78125 99.988281 C 148.382812 102.765625 146.839844 107.085938 147.457031 111.5625 C 147.765625 114.03125 149 116.5 151.007812 117.890625 C 153.480469 119.585938 156.726562 118.816406 159.507812 120.050781 C 161.976562 121.128906 163.523438 123.601562 164.605469 125.914062 L 165.066406 126.839844 C 166.148438 129 167.230469 131.160156 168.621094 133.167969 C 170.320312 135.484375 172.328125 137.644531 174.648438 139.339844 C 175.726562 140.265625 176.808594 141.039062 178.046875 141.65625 L 178.355469 141.808594 C 179.589844 142.582031 180.363281 143.199219 180.515625 144.742188 C 180.515625 145.203125 180.207031 145.667969 179.746094 145.976562 C 177.890625 147.210938 176.039062 145.667969 174.648438 144.742188 C 172.949219 143.660156 171.402344 142.425781 170.011719 141.039062 C 167.230469 138.570312 164.914062 135.484375 163.058594 132.242188 C 161.667969 129.773438 160.898438 126.222656 158.578125 124.371094 C 157.1875 123.136719 155.335938 123.136719 153.636719 122.980469 C 152.089844 122.828125 150.546875 122.519531 149.15625 121.746094 C 143.441406 118.660156 141.894531 110.945312 143.285156 105.082031 C 143.441406 104.15625 143.902344 103.074219 144.210938 102.148438 C 142.050781 102.457031 139.730469 100.296875 140.503906 98.136719 C 140.503906 97.980469 140.660156 97.828125 140.660156 97.671875 C 139.269531 96.746094 138.1875 95.359375 137.570312 93.507812 C 137.261719 92.582031 137.261719 91.65625 137.414062 90.730469 C 136.796875 90.265625 136.179688 89.648438 135.871094 88.878906 C 134.789062 88.414062 133.707031 87.640625 133.089844 86.40625 C 132.316406 84.863281 132.316406 83.476562 132.933594 82.242188 C 132.78125 82.085938 132.78125 81.933594 132.625 81.777344 C 130.308594 80.390625 128.761719 77.765625 128.917969 74.988281 C 128.917969 74.0625 129.226562 73.289062 129.535156 72.519531 C 129.535156 72.363281 129.535156 72.363281 129.382812 72.210938 C 127.527344 71.285156 125.828125 69.585938 125.363281 67.425781 C 124.746094 65.265625 125.519531 63.105469 126.753906 61.40625 C 124.746094 60.019531 123.664062 58.011719 124.28125 54.925781 C 124.589844 53.691406 125.210938 52.609375 125.980469 51.683594 C 125.980469 51.683594 125.980469 51.683594 125.980469 51.53125 L 125.828125 51.375 C 123.820312 49.988281 122.429688 47.519531 123.972656 44.585938 C 124.589844 43.199219 125.519531 42.273438 126.753906 41.65625 L 126.753906 41.5 C 125.980469 39.800781 125.671875 37.949219 126.292969 35.945312 C 126.753906 34.246094 127.835938 33.011719 129.226562 32.085938 C 129.070312 31.316406 129.070312 30.542969 129.226562 29.773438 C 129.535156 28.382812 130.152344 27.148438 131.234375 26.222656 C 131.234375 26.066406 131.390625 25.914062 131.390625 25.605469 C 131.699219 24.523438 132.472656 23.289062 133.089844 22.363281 C 133.707031 21.59375 134.480469 21.285156 135.25 21.285156 C 135.25 20.511719 135.25 19.894531 135.40625 19.125 C 135.871094 16.960938 137.261719 14.800781 139.421875 13.875 C 140.351562 13.414062 141.121094 13.414062 142.050781 13.414062 C 142.820312 11.871094 144.210938 10.789062 146.066406 10.480469 C 146.839844 10.328125 147.457031 10.328125 148.074219 10.480469 C 148.382812 10.328125 148.691406 10.171875 149.15625 10.019531 C 149.464844 9.863281 149.621094 9.863281 149.929688 9.710938 C 150.699219 8.628906 151.78125 7.859375 153.171875 7.394531 C 154.5625 6.777344 156.109375 6.933594 157.5 7.394531 L 157.960938 7.242188 C 158.578125 6.160156 159.660156 5.234375 161.359375 4.769531 C 163.214844 4.308594 165.066406 4.925781 166.457031 6.160156 C 167.230469 4.460938 168.46875 3.226562 170.628906 3.382812 C 172.019531 3.382812 173.257812 4.152344 174.183594 5.078125 C 174.648438 5.078125 175.265625 4.925781 175.726562 4.925781 C 176.347656 4.308594 176.964844 3.691406 177.582031 3.074219 C 178.664062 2.148438 180.207031 2.300781 180.980469 3.535156 C 181.136719 3.84375 181.289062 4.152344 181.445312 4.308594 L 182.21875 4.308594 C 183.144531 3.074219 184.378906 2.300781 185.925781 2.300781 C 187.46875 2.300781 188.550781 2.917969 189.324219 4 C 189.941406 4 190.714844 4 191.332031 4 C 191.949219 2.917969 192.875 2.148438 193.957031 1.53125 C 194.730469 1.066406 195.964844 1.222656 196.585938 1.839844 C 197.046875 2.300781 197.511719 2.765625 197.820312 3.226562 C 198.746094 2.148438 200.136719 1.53125 201.527344 1.222656 Z M 153.480469 104.773438 C 155.027344 103.847656 157.035156 104.773438 158.578125 105.542969 C 160.433594 106.46875 162.132812 107.859375 163.214844 109.554688 C 164.757812 111.871094 161.207031 113.722656 159.660156 111.71875 C 158.734375 110.480469 157.960938 109.09375 156.726562 108.011719 C 155.644531 106.933594 154.097656 106.160156 153.480469 104.773438 Z M 154.5625 48.753906 C 155.027344 47.519531 153.171875 46.902344 152.710938 48.136719 C 152.089844 49.988281 152.863281 51.839844 154.5625 52.609375 C 155.027344 52.765625 155.644531 52.765625 155.953125 52.300781 C 156.261719 51.839844 156.109375 51.222656 155.644531 50.914062 C 154.5625 50.449219 154.253906 49.679688 154.5625 48.753906 Z M 138.339844 45.359375 C 139.269531 44.585938 137.878906 43.199219 136.949219 43.96875 C 136.023438 44.742188 135.40625 45.820312 135.558594 47.054688 C 135.714844 48.289062 136.640625 49.214844 137.722656 49.832031 C 138.804688 50.449219 139.730469 48.753906 138.648438 48.136719 L 138.496094 48.136719 C 138.03125 47.828125 137.570312 47.519531 137.414062 46.902344 C 137.414062 46.128906 137.878906 45.667969 138.339844 45.359375 Z M 143.59375 30.699219 C 144.675781 29.925781 143.75 28.226562 142.667969 29 C 141.738281 29.617188 140.96875 30.542969 140.8125 31.777344 C 140.660156 33.011719 141.277344 33.9375 142.050781 34.863281 C 142.976562 35.789062 144.367188 34.402344 143.441406 33.476562 C 142.820312 32.394531 142.667969 31.46875 143.59375 30.699219 Z M 143.59375 30.699219 " fill-opacity="1" fill-rule="evenodd"/><path fill="rgb(77.249146%, 18.818665%, 18.818665%)" d="M 231.640625 129.480469 C 232.101562 128.554688 233.339844 127.785156 234.421875 127.9375 C 239.210938 128.554688 239.054688 134.265625 237.355469 137.503906 C 235.8125 140.4375 232.414062 142.136719 229.015625 141.980469 C 225.460938 141.671875 222.523438 139.667969 221.132812 136.425781 C 220.207031 134.265625 219.898438 130.253906 222.214844 128.710938 C 222.214844 128.710938 222.371094 128.710938 222.371094 128.710938 C 223.453125 129.945312 223.453125 131.949219 224.535156 133.339844 C 225.304688 134.726562 226.851562 135.808594 228.394531 135.960938 C 229.632812 136.117188 230.867188 135.652344 231.332031 134.574219 C 231.640625 133.957031 231.640625 133.648438 231.484375 133.339844 L 231.484375 132.875 C 231.175781 131.640625 231.023438 130.714844 231.640625 129.480469 Z M 233.03125 104.328125 C 235.503906 105.871094 239.210938 109.265625 236.582031 112.96875 C 233.492188 116.210938 229.015625 112.503906 226.695312 110.808594 C 224.6875 109.417969 222.371094 112.8125 224.222656 114.355469 C 240.292969 126.394531 246.78125 104.789062 234.265625 102.628906 C 232.875 102.320312 232.257812 103.863281 233.03125 104.328125 Z M 206.921875 94.140625 C 208.464844 91.824219 211.863281 92.136719 212.792969 94.914062 C 213.253906 96.300781 212.636719 97.691406 212.636719 99.078125 C 212.636719 100.3125 212.636719 101.703125 212.175781 102.9375 C 211.246094 105.714844 208.929688 107.566406 205.996094 107.566406 C 203.058594 107.414062 200.585938 105.714844 199.351562 103.089844 C 198.117188 100.46875 198.425781 97.84375 199.351562 95.222656 C 199.351562 95.066406 199.507812 95.066406 199.660156 95.066406 C 200.742188 96.148438 201.515625 97.382812 202.285156 98.617188 L 203.058594 99.851562 C 203.675781 100.777344 204.605469 102.011719 205.6875 102.011719 L 205.839844 102.011719 C 206.148438 102.011719 206.148438 102.011719 206.304688 101.546875 C 206.457031 101.394531 206.457031 100.929688 206.457031 100.777344 L 206.457031 100.621094 C 206.457031 100.46875 206.457031 100.3125 206.457031 99.851562 L 206.457031 99.695312 C 206.304688 98 205.839844 95.683594 206.921875 94.140625 Z M 245.234375 95.683594 C 244.925781 92.753906 249.097656 92.136719 250.332031 94.296875 C 251.105469 95.375 251.261719 96.765625 251.414062 98.152344 L 251.414062 98.769531 C 251.570312 100.160156 251.570312 101.546875 251.105469 102.78125 C 250.179688 104.789062 248.171875 105.871094 246.007812 105.714844 C 243.84375 105.5625 241.992188 104.328125 241.0625 102.472656 C 240.136719 100.777344 239.210938 97.691406 240.292969 95.839844 C 240.292969 95.683594 240.445312 95.683594 240.601562 95.839844 C 241.683594 96.765625 241.835938 98.460938 242.453125 99.542969 C 243.074219 100.777344 244 102.011719 245.542969 102.164062 C 246.933594 102.320312 247.398438 101.546875 247.089844 100.3125 C 246.625 98.617188 245.390625 97.535156 245.234375 95.683594 Z M 208.003906 76.855469 L 208.621094 76.546875 C 210.9375 75.621094 214.027344 74.695312 215.882812 76.546875 C 216.964844 77.628906 217.273438 79.324219 216.5 80.714844 C 215.574219 82.414062 213.71875 82.414062 212.019531 82.722656 C 210.011719 83.03125 208.003906 83.492188 206.304688 84.265625 C 204.296875 85.191406 202.285156 86.269531 200.433594 87.351562 C 198.734375 88.429688 196.878906 90.4375 194.714844 90.746094 C 194.5625 90.746094 194.5625 90.746094 194.5625 90.589844 C 194.097656 88.585938 195.488281 86.425781 196.570312 84.882812 C 197.960938 82.875 199.816406 81.332031 201.667969 79.941406 C 203.675781 78.707031 205.839844 77.628906 208.003906 76.855469 Z M 249.5625 84.265625 L 249.714844 84.265625 C 251.105469 84.109375 252.34375 84.109375 253.421875 85.191406 C 254.195312 85.960938 254.503906 87.042969 254.195312 88.277344 C 253.886719 89.355469 253.113281 90.28125 251.878906 90.589844 C 248.015625 91.363281 243.84375 91.207031 239.984375 90.589844 C 238.28125 90.28125 236.429688 89.972656 234.730469 89.511719 L 233.957031 89.355469 C 232.566406 88.894531 230.867188 88.585938 229.785156 87.503906 C 229.476562 87.195312 229.632812 86.578125 230.09375 86.425781 C 231.949219 85.652344 234.421875 86.117188 236.429688 85.960938 C 238.746094 85.960938 240.910156 85.652344 243.226562 85.5 C 245.234375 85.191406 247.398438 84.574219 249.5625 84.265625 Z M 249.5625 84.265625 " fill-opacity="1" fill-rule="evenodd"/><path fill="rgb(77.249146%, 18.818665%, 18.818665%)" d="M 203.824219 137.855469 C 206.449219 131.679688 212.164062 127.050781 218.808594 125.507812 C 223.75 124.273438 228.851562 124.273438 233.792969 124.738281 C 236.421875 125.046875 239.199219 125.199219 241.671875 126.125 C 243.835938 126.898438 245.535156 128.441406 246.769531 130.292969 C 248.316406 132.453125 249.398438 134.921875 250.015625 137.546875 C 250.167969 137.855469 250.167969 138.316406 250.324219 138.625 C 250.015625 140.476562 249.398438 142.175781 247.542969 143.410156 C 245.84375 144.644531 243.679688 145.109375 241.671875 145.261719 C 241.519531 145.109375 241.210938 145.109375 241.054688 144.953125 C 237.808594 143.101562 235.492188 138.78125 231.476562 139.398438 C 227.921875 139.859375 225.449219 144.492188 223.289062 147.113281 C 216.335938 147.886719 209.382812 145.878906 203.824219 141.867188 C 203.667969 140.632812 203.667969 139.242188 203.824219 137.855469 M 255.113281 133.226562 C 254.496094 131.679688 253.878906 130.136719 253.105469 128.75 C 250.324219 124.121094 246.152344 120.261719 241.210938 118.253906 C 229.46875 113.164062 214.171875 116.710938 204.59375 125.046875 C 201.351562 127.824219 198.105469 131.988281 197.023438 136.464844 C 196.714844 136.464844 196.40625 136.621094 196.253906 136.929688 C 189.300781 132.609375 182.347656 128.441406 176.785156 122.421875 C 172.769531 118.101562 169.988281 112.855469 168.289062 107.296875 C 168.136719 106.835938 167.363281 106.835938 167.363281 107.453125 C 167.363281 107.605469 167.363281 107.761719 167.363281 107.761719 C 167.363281 107.605469 166.898438 107.605469 166.898438 107.914062 C 165.972656 114.859375 164.890625 122.113281 165.816406 129.058594 C 166.4375 133.226562 168.289062 136.15625 170.914062 139.550781 C 173.542969 143.101562 176.632812 146.34375 179.722656 149.429688 C 181.730469 151.433594 183.738281 153.75 186.210938 155.136719 C 188.992188 156.835938 192.234375 158.070312 195.171875 159.460938 C 198.261719 160.847656 201.351562 162.082031 204.441406 163.007812 C 210.773438 164.859375 217.417969 166.402344 224.0625 167.019531 C 229.3125 167.484375 235.492188 168.101562 240.589844 166.09375 C 244.453125 164.550781 247.542969 161.773438 250.015625 158.535156 C 252.796875 154.828125 254.957031 150.816406 256.039062 146.34375 C 257.429688 141.867188 255.421875 133.996094 255.113281 133.226562 " fill-opacity="1" fill-rule="evenodd"/></svg>