<svg xmlns="http://www.w3.org/2000/svg" xmlns:xlink="http://www.w3.org/1999/xlink" width="500" zoomAndPan="magnify" viewBox="0 0 375 374.999991" height="500" preserveAspectRatio="xMidYMid meet" version="1.0"><defs><clipPath id="id1"><path d="M 54 125 L 306.539062 125 L 306.539062 371 L 54 371 Z M 54 125 " clip-rule="nonzero"/></clipPath></defs><path fill="rgb(100%, 100%, 100%)" d="M 289.226562 232.191406 C 288.109375 229.320312 289.703125 226.445312 290.503906 223.574219 C 293.535156 213.839844 296.886719 204.101562 301.519531 195.007812 C 303.273438 191.972656 300.402344 188.304688 296.886719 189.101562 C 291.140625 189.898438 285.074219 189.261719 279.167969 188.941406 C 277.09375 183.355469 271.34375 181.121094 266.875 177.929688 C 261.765625 174.738281 256.816406 171.066406 251.550781 168.351562 C 251.230469 165.800781 248.039062 165 246.121094 166.917969 C 240.695312 163.566406 234.308594 164.203125 228.5625 161.96875 C 224.25 154.945312 223.929688 147.445312 222.652344 140.742188 C 222.175781 137.710938 222.652344 134.996094 220.738281 132.28125 C 213.875 122.707031 187.054688 118.558594 177.15625 124.304688 C 171.886719 120.953125 171.726562 127.015625 170.769531 130.6875 C 169.8125 132.601562 169.332031 134.675781 169.492188 136.910156 C 164.066406 148.722656 150.972656 154.148438 139.320312 158.617188 C 137.882812 157.179688 135.808594 157.339844 134.371094 158.617188 C 124.152344 160.851562 114.253906 164.683594 105.792969 170.746094 C 96.054688 173.621094 89.351562 181.441406 84.402344 189.898438 C 83.921875 190.855469 83.761719 191.65625 83.921875 192.613281 C 68.757812 214.796875 61.574219 241.449219 60.457031 268.421875 C 50.71875 274.328125 65.085938 326.835938 68.4375 337.847656 C 70.671875 341.679688 73.066406 352.691406 78.496094 351.894531 C 82.167969 356.042969 88.234375 355.246094 93.183594 355.5625 C 92.382812 358.757812 92.703125 362.425781 93.820312 365.460938 C 94.9375 369.128906 100.6875 369.289062 101.484375 365.300781 C 151.933594 375.035156 203.65625 367.214844 254.742188 368.8125 C 269.429688 368.96875 284.277344 369.449219 298.964844 370.40625 C 301.039062 370.566406 303.113281 368.492188 302.953125 366.417969 C 299.761719 332.742188 296.886719 288.53125 293.214844 255.175781 C 292.257812 247.195312 291.621094 239.535156 289.226562 232.191406 Z M 289.226562 232.191406 " fill-opacity="1" fill-rule="evenodd"/><g clip-path="url(#id1)"><path fill="rgb(77.249146%, 18.818665%, 18.818665%)" d="M 172.046875 126.21875 C 172.207031 125.898438 172.84375 125.898438 172.84375 126.378906 C 173.003906 135.792969 170.769531 147.445312 163.105469 153.828125 C 159.273438 157.179688 154.007812 158.617188 149.378906 160.371094 L 148.738281 160.53125 L 140.4375 163.566406 C 138.203125 164.363281 135.808594 165.640625 133.890625 164.523438 C 135.488281 168.511719 136.765625 172.503906 138.679688 176.171875 C 141.074219 180.800781 143.949219 185.109375 147.460938 189.101562 C 161.671875 204.582031 183.859375 209.371094 203.816406 204.902344 C 214.035156 202.507812 224.089844 198.199219 231.113281 190.058594 C 236.382812 183.832031 239.578125 175.695312 240.214844 167.554688 C 240.054688 167.554688 239.734375 167.554688 239.578125 167.554688 C 237.023438 167.074219 234.46875 165.640625 232.234375 164.363281 L 232.074219 164.203125 C 229.996094 162.925781 227.761719 161.488281 226.167969 159.414062 C 225.207031 158.136719 224.089844 155.265625 222.972656 150.957031 C 222.496094 148.5625 222.175781 143.613281 222.175781 141.21875 C 222.175781 141.0625 223.132812 140.902344 223.292969 141.0625 C 224.25 143.136719 224.570312 147.765625 225.207031 149.839844 L 225.367188 150.316406 C 226.167969 152.550781 226.804688 155.425781 228.402344 157.179688 C 231.433594 160.691406 236.0625 162.128906 240.214844 163.882812 C 240.535156 160.054688 246.761719 160.054688 246.601562 164.203125 C 246.601562 164.363281 246.601562 164.683594 246.601562 164.839844 C 247.078125 165.160156 247.558594 165.480469 248.039062 165.640625 L 248.515625 165.957031 C 250.113281 167.074219 251.710938 168.191406 253.464844 168.992188 C 256.816406 170.746094 260.328125 172.183594 263.84375 173.9375 C 267.355469 175.535156 270.546875 177.609375 273.582031 180.003906 C 275.015625 181.121094 276.453125 182.238281 277.730469 183.515625 L 278.050781 183.835938 C 279.328125 185.109375 280.925781 186.386719 281.5625 187.984375 C 281.722656 188.304688 282.519531 189.101562 282.839844 189.261719 C 289.386719 189.738281 295.929688 190.21875 302.316406 191.175781 C 304.074219 191.335938 304.710938 192.292969 304.074219 193.730469 C 301.996094 198.515625 293.535156 217.828125 291.300781 222.9375 C 291.621094 226.765625 291.140625 231.234375 291.460938 234.90625 C 291.78125 240.492188 292.257812 245.917969 292.738281 251.503906 C 294.652344 271.296875 297.527344 290.925781 300.242188 310.554688 C 301.519531 320.453125 302.796875 330.1875 303.914062 340.082031 C 304.550781 345.03125 305.03125 349.976562 305.351562 355.085938 C 305.507812 357.160156 305.667969 359.234375 305.828125 361.308594 L 305.988281 363.226562 C 306.148438 365.617188 306.46875 367.851562 305.03125 369.769531 C 304.390625 370.726562 302.953125 371.203125 301.996094 370.085938 C 300.878906 368.8125 300.558594 367.851562 300.402344 366.097656 C 300.402344 364.820312 300.242188 363.542969 300.242188 362.109375 C 300.082031 359.234375 299.921875 356.523438 299.761719 353.648438 C 299.441406 348.0625 298.964844 342.316406 298.484375 336.730469 C 296.730469 316.941406 293.375 297.308594 291.140625 277.679688 C 290.023438 267.785156 289.226562 257.730469 288.746094 247.832031 C 288.585938 242.886719 288.425781 237.9375 288.585938 232.832031 C 288.585938 230.917969 288.746094 229.160156 288.746094 227.246094 C 285.394531 234.746094 281.882812 242.246094 278.371094 249.589844 L 277.570312 251.34375 C 275.335938 255.972656 272.941406 260.601562 270.066406 265.070312 L 269.589844 265.867188 C 268.472656 267.625 266.875 270.496094 264.960938 270.976562 C 263.523438 271.296875 261.765625 271.136719 260.328125 271.136719 C 258.894531 271.136719 257.457031 271.136719 256.019531 270.976562 C 254.421875 270.976562 252.828125 270.65625 251.230469 270.335938 C 250.910156 270.335938 250.75 270.179688 250.433594 270.019531 C 248.835938 272.570312 246.121094 274.648438 243.40625 275.765625 C 241.171875 276.722656 238.9375 277.359375 236.542969 277.839844 L 235.746094 278 C 233.191406 278.636719 230.476562 278.957031 229.039062 281.351562 L 228.71875 281.828125 C 228.242188 283.742188 227.125 285.339844 225.527344 286.617188 C 223.613281 288.054688 221.535156 288.851562 219.300781 289.488281 C 217.066406 290.128906 214.832031 290.765625 212.4375 291.246094 L 211.796875 291.40625 C 210.363281 291.722656 208.765625 292.203125 207.328125 292.523438 C 206.691406 292.679688 206.050781 292.839844 205.414062 293.160156 C 204.613281 293.480469 204.136719 293.796875 203.496094 294.277344 C 203.019531 296.03125 200.78125 296.992188 198.867188 296.992188 C 197.910156 296.992188 197.109375 296.671875 196.3125 296.191406 C 194.875 297.308594 193.4375 298.425781 192.003906 299.542969 C 190.085938 300.980469 188.171875 302.578125 186.09375 304.011719 C 182.105469 307.046875 177.953125 310.078125 173.804688 312.949219 C 166.460938 318.21875 158.957031 323.164062 151.453125 327.953125 C 148.261719 330.027344 145.066406 331.941406 141.875 333.859375 L 142.191406 334.019531 L 142.832031 334.335938 C 144.429688 334.976562 146.183594 335.933594 146.503906 337.847656 C 146.824219 339.285156 145.863281 340.402344 144.429688 340.5625 C 142.671875 340.722656 141.394531 339.605469 140.277344 338.328125 C 139.796875 337.847656 139.320312 337.371094 138.839844 336.730469 C 138.679688 336.570312 138.523438 336.253906 138.363281 335.933594 C 135.167969 337.847656 131.976562 339.605469 128.785156 341.359375 L 128.144531 341.679688 C 120.003906 345.828125 112.179688 350.296875 104.039062 354.445312 C 101.964844 355.5625 99.25 356.679688 96.535156 357.480469 C 97.171875 360.191406 97.171875 363.382812 97.332031 366.097656 C 97.332031 368.8125 93.023438 368.8125 93.023438 366.097656 L 93.023438 364.820312 C 93.023438 362.585938 93.183594 360.351562 93.820312 358.117188 C 85.839844 359.394531 77.855469 356.523438 76.421875 355.722656 C 74.824219 354.765625 73.226562 353.167969 72.109375 351.894531 C 69.394531 348.859375 67.640625 345.191406 66.042969 341.519531 C 62.53125 333.699219 60.136719 325.398438 58.21875 316.941406 C 51.515625 285.976562 54.390625 253.101562 65.246094 223.574219 C 67.957031 216.234375 71.152344 209.050781 74.824219 202.027344 L 75.300781 201.230469 C 78.972656 194.367188 82.964844 187.503906 88.234375 181.597656 C 93.660156 175.535156 100.207031 170.746094 107.390625 167.074219 C 110.902344 165.320312 114.574219 163.722656 118.246094 162.289062 C 118.886719 162.128906 119.363281 161.808594 120.003906 161.648438 C 123.835938 159.253906 128.464844 156.863281 133.253906 156.863281 C 133.574219 156.863281 133.890625 157.019531 134.050781 157.179688 C 134.210938 157.179688 134.53125 157.339844 134.691406 157.339844 C 135.167969 157.5 135.648438 157.980469 135.648438 158.617188 L 135.648438 158.777344 C 135.648438 158.9375 135.648438 158.9375 135.648438 159.097656 C 135.808594 159.097656 135.96875 159.097656 136.125 159.253906 C 140.597656 157.980469 145.066406 156.0625 149.378906 154.46875 L 150.335938 154.148438 C 154.007812 152.871094 157.679688 151.59375 160.710938 149.042969 C 163.746094 146.488281 165.980469 143.296875 167.578125 139.785156 C 169.492188 135.476562 170.289062 130.6875 172.046875 126.21875 Z M 261.605469 356.042969 C 262.566406 355.402344 263.523438 356.203125 263.84375 357 C 264.960938 359.714844 264.320312 363.863281 262.882812 366.257812 C 261.289062 368.652344 257.457031 367.695312 257.457031 364.820312 C 257.296875 361.628906 259.210938 357.957031 261.605469 356.042969 Z M 270.867188 282.148438 C 270.867188 281.828125 271.503906 281.828125 271.503906 282.148438 C 272.304688 285.339844 272.304688 288.691406 272.464844 291.882812 L 272.464844 292.203125 C 272.78125 295.714844 272.941406 299.382812 273.101562 302.894531 C 273.421875 309.917969 273.738281 316.941406 274.21875 323.964844 C 274.378906 327.472656 274.699219 330.984375 274.859375 334.335938 C 275.65625 333.859375 276.292969 333.539062 277.09375 333.21875 C 278.210938 332.742188 279.328125 332.742188 280.605469 332.742188 C 282.203125 332.742188 283.320312 334.019531 283 335.613281 C 282.839844 337.210938 281.402344 338.007812 279.808594 337.6875 C 278.210938 337.371094 276.453125 337.050781 274.859375 336.890625 C 275.015625 339.605469 275.175781 342.316406 275.496094 344.871094 C 275.816406 348.382812 276.136719 351.894531 276.292969 355.5625 C 276.292969 355.882812 276.292969 356.203125 276.292969 356.523438 C 277.253906 356.042969 278.371094 355.722656 279.488281 355.40625 L 279.808594 355.246094 C 281.5625 354.765625 283.320312 354.128906 284.914062 355.246094 C 286.03125 356.042969 286.191406 357.320312 285.394531 358.277344 C 284.117188 359.875 282.042969 359.554688 280.125 359.394531 L 279.167969 359.394531 C 278.210938 359.394531 277.410156 359.234375 276.453125 359.074219 C 276.613281 361.308594 276.773438 363.703125 276.453125 365.9375 C 276.292969 367.214844 274.699219 367.535156 274.21875 366.257812 C 273.101562 362.90625 272.941406 359.394531 272.464844 356.042969 C 272.144531 352.851562 271.824219 349.660156 271.664062 346.308594 L 271.664062 345.347656 C 271.027344 338.328125 270.707031 331.144531 270.386719 323.964844 C 270.066406 316.78125 269.910156 309.757812 269.75 302.578125 C 269.75 299.382812 269.75 296.03125 269.910156 292.839844 L 269.910156 291.882812 C 270.226562 288.851562 270.066406 285.339844 270.867188 282.148438 Z M 122.558594 356.679688 C 122.558594 356.203125 123.035156 355.722656 123.515625 355.722656 C 123.992188 355.722656 124.472656 355.722656 124.953125 355.882812 C 125.589844 356.042969 126.070312 356.363281 126.707031 356.679688 C 127.664062 357 128.785156 357.320312 129.742188 357.640625 C 131.65625 358.277344 132.613281 360.191406 131.816406 362.109375 C 131.019531 364.023438 128.941406 364.5 127.1875 363.703125 C 125.75 363.066406 124.792969 361.949219 123.835938 360.832031 L 123.515625 360.511719 C 123.035156 360.03125 122.714844 359.394531 122.398438 358.757812 C 122.398438 357.957031 122.558594 357.160156 122.558594 356.679688 Z M 214.671875 347.425781 C 217.066406 347.105469 218.980469 347.902344 221.21875 348.699219 L 221.375 348.699219 C 223.613281 349.5 226.804688 349.976562 227.921875 352.210938 C 228.5625 353.648438 228.082031 355.402344 226.484375 355.882812 C 223.929688 356.523438 221.695312 354.605469 219.460938 353.328125 L 219.300781 353.328125 C 217.226562 352.050781 215.152344 351.09375 213.875 349.019531 C 213.714844 348.542969 214.035156 347.425781 214.671875 347.425781 Z M 132.296875 159.574219 C 131.335938 159.734375 130.378906 160.054688 129.421875 160.214844 C 125.75 162.128906 122.398438 164.203125 118.566406 165.800781 C 114.574219 167.554688 110.742188 169.46875 106.910156 171.703125 C 99.410156 176.171875 93.183594 181.917969 87.914062 189.101562 C 78.972656 201.390625 72.429688 215.433594 67.640625 229.800781 C 66.363281 233.46875 65.40625 237.140625 64.445312 240.972656 C 66.203125 239.375 68.117188 238.417969 70.351562 237.621094 C 71.3125 237.300781 72.429688 237.9375 73.066406 238.738281 C 73.226562 239.054688 73.386719 239.535156 73.386719 239.855469 C 73.386719 240.8125 72.75 241.929688 71.628906 242.089844 C 69.234375 242.566406 66.839844 243.363281 64.605469 244.164062 C 64.285156 244.324219 63.96875 244.164062 63.648438 244.164062 C 61.414062 253.898438 59.816406 263.953125 59.339844 274.007812 C 58.859375 282.46875 59.179688 291.085938 60.136719 299.542969 C 60.933594 299.226562 61.574219 298.90625 62.371094 298.746094 C 63.328125 298.425781 64.445312 298.265625 65.40625 297.949219 C 68.277344 296.992188 69.554688 301.777344 66.683594 302.578125 C 65.5625 302.894531 64.445312 303.054688 63.328125 303.214844 C 62.371094 303.375 61.414062 303.375 60.613281 303.214844 C 61.253906 308.480469 62.210938 313.75 63.488281 319.015625 L 63.808594 320.132812 C 65.40625 326.835938 67.320312 333.378906 69.875 339.761719 C 71.152344 342.796875 72.90625 345.828125 75.144531 348.382812 C 76.261719 349.660156 77.378906 350.777344 78.65625 351.734375 C 79.773438 352.53125 83.285156 354.445312 87.59375 354.445312 C 91.90625 354.445312 93.023438 353.96875 95.257812 353.328125 C 99.566406 351.894531 103.558594 349.5 107.550781 347.425781 L 108.03125 347.265625 C 109.785156 346.308594 111.542969 345.347656 113.296875 344.550781 C 113.136719 342.796875 113.457031 341.199219 114.414062 339.605469 C 115.375 337.847656 117.925781 338.644531 118.085938 340.5625 C 118.085938 341.039062 118.246094 341.359375 118.246094 341.839844 C 130.058594 335.292969 141.554688 328.433594 152.890625 321.25 C 160.234375 316.621094 167.417969 311.832031 174.601562 306.886719 C 178.113281 304.492188 181.785156 301.9375 185.136719 299.382812 C 186.894531 298.109375 188.808594 296.671875 190.566406 295.394531 C 191.363281 294.757812 192.003906 294.277344 192.800781 293.640625 C 192.640625 293.480469 192.480469 293.160156 192.320312 293 C 189.449219 289.328125 187.691406 284.859375 186.734375 280.234375 C 186.253906 277.519531 185.9375 274.648438 185.777344 271.773438 L 185.777344 270.496094 C 185.777344 268.421875 185.777344 266.347656 186.09375 264.273438 C 185.617188 264.589844 184.976562 264.910156 184.5 265.070312 C 182.582031 266.1875 180.667969 267.144531 178.910156 268.261719 C 175.078125 270.335938 171.410156 272.414062 167.417969 274.488281 C 160.550781 278.15625 153.6875 281.507812 146.503906 284.542969 L 142.992188 285.976562 C 136.925781 288.53125 130.859375 291.085938 124.632812 293 C 121.121094 294.117188 117.609375 295.074219 113.9375 295.875 L 115.375 297.628906 C 116.96875 298.425781 116.96875 300.023438 115.691406 300.980469 C 114.414062 301.9375 112.820312 301.460938 112.019531 300.34375 L 110.582031 297.949219 C 110.265625 297.46875 110.105469 296.992188 109.945312 296.511719 C 108.347656 296.832031 106.59375 297.148438 104.996094 297.46875 L 101.804688 298.109375 C 97.332031 298.90625 93.023438 300.660156 89.03125 302.894531 C 87.59375 303.695312 87.277344 302.257812 88.710938 301.140625 C 93.023438 298.109375 97.972656 296.351562 103.238281 295.074219 L 103.558594 295.074219 C 105.476562 294.597656 107.390625 293.957031 109.308594 293.480469 C 109.148438 292.679688 108.988281 291.882812 108.988281 291.085938 C 108.988281 289.171875 109.148438 287.253906 109.308594 285.339844 C 109.464844 281.351562 109.785156 277.359375 110.105469 273.210938 C 110.265625 271.613281 110.425781 270.179688 110.582031 268.582031 C 109.625 268.101562 108.667969 267.304688 107.550781 266.984375 L 107.390625 266.984375 C 106.113281 266.667969 106.59375 265.070312 107.710938 264.910156 C 108.667969 264.75 109.625 264.910156 110.582031 265.070312 C 110.742188 265.070312 110.902344 265.070312 111.0625 265.230469 C 111.222656 263.792969 111.382812 262.355469 111.703125 260.921875 C 112.339844 257.089844 112.660156 253.261719 113.9375 249.589844 C 114.097656 249.269531 114.414062 249.269531 114.574219 249.429688 C 116.332031 252.78125 116.492188 256.929688 116.648438 260.761719 L 116.648438 261.238281 C 116.808594 265.390625 116.96875 269.539062 116.808594 273.6875 C 116.808594 278 116.648438 282.148438 116.332031 286.457031 C 116.332031 288.210938 116.332031 289.96875 116.011719 291.5625 C 126.546875 288.054688 137.085938 284.0625 146.984375 279.117188 C 154.007812 275.605469 161.03125 272.09375 167.894531 268.421875 C 171.410156 266.507812 174.761719 264.75 178.273438 262.835938 C 179.550781 262.199219 180.667969 261.558594 181.945312 260.921875 L 183.699219 259.964844 C 185.457031 259.003906 186.734375 258.046875 188.808594 258.046875 C 189.449219 258.046875 189.925781 258.367188 190.246094 258.6875 C 191.363281 257.886719 192.480469 257.410156 193.757812 257.410156 C 195.675781 254.695312 197.589844 252.144531 199.664062 249.429688 L 201.101562 247.515625 C 203.65625 244.164062 206.53125 240.8125 209.882812 238.257812 C 211.320312 237.140625 213.074219 236.34375 214.671875 235.542969 C 214.191406 235.386719 213.875 235.226562 213.554688 234.90625 C 211.957031 233.46875 211.636719 230.597656 211.320312 228.523438 C 211 226.289062 211.160156 224.371094 211.480469 222.136719 C 211.636719 221.339844 213.074219 221.179688 213.394531 221.820312 C 214.191406 223.414062 214.832031 225.011719 215.46875 226.765625 L 215.628906 227.246094 C 216.269531 229.160156 217.863281 231.074219 217.703125 233.152344 C 217.703125 233.628906 217.546875 234.269531 217.226562 234.585938 C 218.664062 234.109375 220.101562 233.628906 221.535156 233.308594 C 226.007812 231.875 230.636719 230.597656 235.105469 229.480469 C 236.382812 229.160156 237.5 229 238.777344 228.683594 C 239.417969 225.648438 240.375 222.617188 241.492188 219.585938 C 240.535156 218.945312 239.894531 217.988281 238.9375 217.191406 C 238.140625 216.390625 237.5 215.59375 236.863281 214.636719 C 236.222656 213.839844 236.542969 212.402344 237.820312 212.402344 L 238.140625 212.402344 C 239.417969 212.402344 240.535156 212.5625 241.652344 213.199219 L 241.972656 213.359375 C 242.449219 213.679688 243.089844 214 243.566406 214.316406 C 244.207031 212.722656 245.003906 211.125 245.644531 209.53125 L 246.601562 207.453125 C 248.996094 202.1875 251.550781 196.761719 254.582031 191.8125 C 256.019531 189.578125 257.777344 188.304688 260.328125 188.144531 C 263.042969 187.984375 265.757812 188.144531 268.472656 188.304688 C 271.664062 188.460938 274.699219 188.621094 277.890625 188.78125 C 277.09375 187.984375 276.292969 187.027344 275.496094 186.226562 C 274.21875 184.949219 272.78125 183.675781 271.34375 182.398438 C 268.472656 180.164062 265.277344 178.246094 261.925781 176.492188 C 258.574219 174.894531 255.222656 173.460938 252.027344 171.386719 C 250.113281 170.109375 248.195312 168.511719 246.601562 166.757812 C 245.644531 177.769531 240.214844 187.984375 232.234375 195.644531 C 223.929688 203.625 212.4375 207.933594 201.261719 209.847656 C 189.765625 211.765625 177.953125 211.125 166.9375 207.136719 C 161.351562 205.0625 155.921875 202.1875 151.132812 198.515625 C 151.132812 198.835938 150.972656 199.15625 150.8125 199.476562 C 150.65625 199.792969 150.496094 200.273438 150.175781 200.59375 L 149.695312 201.230469 C 149.378906 201.550781 149.21875 202.027344 148.898438 202.347656 C 148.101562 203.144531 147.140625 203.625 146.023438 203.625 C 143.949219 203.625 142.351562 201.550781 142.832031 199.476562 C 143.152344 198.199219 143.949219 197.398438 145.226562 196.921875 C 145.546875 196.761719 146.023438 196.601562 146.34375 196.441406 L 146.664062 196.28125 C 146.984375 196.125 147.460938 195.964844 147.78125 195.964844 C 145.546875 193.890625 143.3125 191.8125 141.554688 189.421875 C 135.648438 182.078125 129.742188 171.703125 131.65625 161.808594 C 131.65625 161.648438 131.816406 161.488281 131.976562 161.488281 C 132.136719 160.851562 132.453125 160.054688 132.933594 159.734375 C 132.933594 159.734375 132.613281 159.734375 132.296875 159.574219 Z M 194.078125 329.867188 C 195.195312 329.230469 196.472656 330.824219 195.515625 331.785156 L 194.078125 333.21875 C 192.800781 334.496094 191.523438 335.933594 190.40625 337.371094 L 189.925781 337.6875 C 188.332031 339.761719 186.734375 342.15625 184.179688 342.957031 C 181.148438 343.914062 178.273438 340.242188 180.027344 337.527344 C 181.625 335.136719 184.5 334.335938 187.054688 333.378906 C 189.609375 332.421875 191.84375 331.144531 194.078125 329.867188 Z M 96.054688 318.855469 C 96.695312 317.898438 98.609375 318.378906 98.132812 319.652344 C 96.535156 323.804688 95.898438 329.550781 92.066406 332.261719 C 90.789062 333.21875 88.871094 332.742188 87.753906 331.785156 C 86.636719 330.667969 86.476562 328.910156 87.277344 327.472656 C 88.074219 325.71875 90.148438 324.441406 91.425781 323.164062 L 91.585938 323.003906 C 93.183594 321.730469 94.777344 320.613281 96.054688 318.855469 Z M 258.09375 323.644531 C 259.371094 323.164062 262.566406 322.046875 263.523438 323.324219 C 263.523438 323.324219 263.683594 323.484375 263.683594 323.484375 C 263.84375 323.964844 264 324.441406 263.683594 324.921875 C 262.566406 326.515625 261.449219 327.792969 259.851562 329.070312 L 259.691406 329.230469 C 257.933594 330.507812 256.339844 331.941406 254.261719 332.582031 C 251.390625 333.378906 249.316406 329.707031 251.390625 327.632812 C 252.988281 325.878906 255.539062 325.082031 257.777344 324.121094 Z M 141.394531 299.863281 C 140.917969 298.90625 141.875 297.949219 142.832031 298.425781 C 145.386719 300.023438 148.417969 301.140625 151.292969 301.9375 C 152.410156 302.257812 153.527344 303.535156 153.367188 304.8125 L 153.367188 304.96875 C 153.367188 305.449219 153.207031 305.929688 153.050781 306.246094 C 152.089844 307.523438 150.65625 308.003906 149.058594 307.363281 C 145.707031 305.769531 143.3125 303.214844 141.394531 299.863281 Z M 216.429688 297.308594 C 216.429688 296.992188 216.585938 296.671875 217.066406 296.671875 C 219.300781 297.148438 221.21875 298.109375 223.132812 299.382812 C 224.089844 300.023438 225.046875 300.660156 226.167969 301.460938 C 227.445312 302.257812 227.921875 302.894531 228.082031 304.332031 C 228.242188 305.289062 227.285156 306.246094 226.484375 306.40625 C 224.25 307.203125 221.535156 304.8125 220.101562 303.214844 C 218.183594 301.460938 216.746094 299.542969 216.429688 297.308594 Z M 281.5625 294.757812 C 281.082031 293.480469 282.839844 292.363281 283.957031 293 C 285.074219 293.640625 286.191406 294.117188 287.148438 294.914062 C 288.109375 295.554688 288.90625 296.351562 289.703125 296.992188 L 290.183594 297.308594 C 291.78125 298.585938 294.492188 301.777344 292.097656 303.695312 C 289.863281 305.449219 286.992188 303.214844 285.554688 301.617188 L 285.394531 301.460938 C 284.597656 300.5 283.476562 299.382812 282.839844 298.265625 C 282.359375 297.148438 281.882812 295.875 281.5625 294.757812 Z M 260.011719 191.496094 C 257.296875 191.972656 256.179688 195.324219 255.0625 197.558594 C 252.347656 202.667969 249.792969 207.933594 247.398438 213.199219 C 246.601562 214.796875 245.800781 216.390625 245.164062 218.148438 C 245.164062 218.308594 245.003906 218.46875 245.003906 218.46875 C 243.40625 221.820312 241.8125 225.171875 240.054688 228.363281 C 241.8125 228.042969 243.40625 227.722656 245.164062 227.5625 C 245.003906 225.96875 246.121094 223.734375 246.761719 222.457031 L 246.761719 222.296875 C 247.398438 220.542969 248.195312 217.828125 249.953125 216.871094 C 250.589844 216.550781 251.230469 216.871094 251.230469 217.667969 C 251.390625 219.585938 249.472656 221.820312 248.515625 223.414062 C 248.039062 224.371094 247.398438 225.328125 246.921875 226.445312 C 246.761719 226.765625 246.601562 227.246094 246.28125 227.5625 C 247.238281 227.40625 248.039062 227.40625 248.996094 227.246094 L 249.632812 227.246094 C 252.988281 227.085938 256.5 226.925781 259.371094 228.523438 C 262.085938 229.957031 263.523438 233.308594 262.085938 236.183594 C 260.171875 239.855469 256.019531 240.332031 252.347656 240.652344 C 247.71875 240.972656 243.089844 241.769531 238.617188 242.40625 C 233.828125 243.046875 229.519531 244.800781 224.890625 245.757812 C 224.410156 245.917969 224.25 245.28125 224.570312 244.960938 C 228.242188 242.726562 232.710938 241.449219 236.703125 240.332031 L 237.023438 240.171875 C 239.257812 239.535156 241.492188 238.738281 243.726562 238.257812 C 245.960938 237.9375 248.195312 237.621094 250.433594 237.300781 L 250.589844 237.300781 C 253.144531 237.140625 259.371094 237.140625 259.054688 233.46875 C 258.894531 231.074219 254.902344 230.597656 253.144531 230.597656 C 244.84375 230.4375 236.542969 232.671875 228.71875 235.066406 L 226.964844 235.542969 C 223.773438 236.503906 220.578125 237.460938 217.386719 238.578125 C 213.875 239.855469 211 241.929688 208.445312 244.640625 C 205.570312 247.675781 202.699219 250.867188 199.824219 253.738281 C 197.910156 255.652344 195.992188 257.410156 194.078125 259.164062 C 193.597656 259.804688 193.28125 260.28125 193.121094 261.082031 C 192.640625 262.355469 192.800781 263.632812 192.960938 265.070312 C 193.28125 268.582031 193.4375 272.09375 193.917969 275.605469 C 194.398438 278.796875 195.035156 282.148438 196.3125 285.179688 C 196.792969 286.296875 197.589844 287.574219 198.386719 288.53125 L 199.027344 289.328125 C 199.347656 289.648438 199.664062 290.128906 199.984375 290.445312 C 200.464844 289.808594 201.101562 289.488281 201.898438 289.648438 C 203.496094 289.808594 204.773438 289.808594 206.371094 289.328125 C 207.648438 289.011719 208.925781 288.691406 210.203125 288.371094 C 212.757812 287.734375 215.308594 287.09375 217.703125 286.457031 L 218.183594 286.296875 C 220.101562 285.660156 221.855469 285.019531 223.453125 283.742188 C 225.207031 282.308594 225.847656 280.390625 227.125 278.636719 C 229.996094 274.964844 236.0625 274.964844 240.214844 274.007812 C 243.726562 273.210938 247.078125 271.773438 249.632812 269.21875 L 249.792969 269.058594 C 249.632812 268.582031 249.792969 268.101562 250.273438 267.785156 L 250.433594 267.785156 C 250.589844 267.625 250.75 267.625 250.910156 267.625 C 251.070312 267.304688 251.390625 266.984375 251.550781 266.507812 C 251.710938 266.1875 252.1875 266.347656 252.027344 266.667969 C 252.027344 266.824219 252.027344 266.984375 251.867188 267.144531 C 254.261719 266.507812 256.816406 266.667969 259.210938 266.667969 L 262.40625 266.667969 C 262.882812 266.667969 263.683594 266.667969 263.84375 266.667969 C 264 266.507812 263.683594 266.667969 263.84375 266.507812 C 264 266.347656 264.160156 266.027344 264.320312 265.867188 C 264.800781 265.070312 265.277344 264.433594 265.757812 263.632812 C 260.488281 264.910156 255.0625 265.867188 249.792969 266.507812 C 244.046875 267.304688 238.300781 267.785156 232.390625 267.785156 C 230.796875 267.785156 230.796875 265.390625 232.390625 265.390625 C 238.457031 265.230469 244.683594 264.910156 250.75 264.113281 C 253.945312 263.632812 256.976562 263.15625 260.171875 262.675781 C 261.449219 262.515625 262.566406 262.199219 263.84375 261.878906 L 264.800781 261.71875 C 265.4375 261.558594 266.875 261.398438 267.671875 260.921875 C 267.832031 260.601562 267.992188 260.441406 268.152344 260.121094 C 268.152344 259.164062 265.757812 259.324219 265.121094 259.324219 C 263.523438 259.324219 262.085938 259.324219 260.488281 259.324219 C 257.457031 259.324219 254.261719 259.324219 251.230469 259.324219 C 245.003906 259.324219 238.777344 259.003906 232.550781 259.324219 C 231.113281 259.324219 230.316406 256.929688 231.753906 256.292969 C 238.300781 253.417969 245.644531 252.941406 252.667969 251.984375 C 256.339844 251.503906 260.011719 251.027344 263.683594 250.066406 L 264.640625 249.910156 C 266.875 249.269531 269.429688 248.632812 271.34375 247.195312 C 268.472656 246.078125 264.960938 246.238281 261.925781 246.078125 L 261.765625 246.078125 C 257.617188 245.757812 253.464844 245.757812 249.316406 245.757812 C 240.851562 245.757812 232.234375 246.078125 223.773438 246.398438 C 223.613281 246.398438 223.453125 246.078125 223.773438 246.078125 C 232.550781 244.164062 241.492188 243.207031 250.433594 243.046875 C 254.582031 243.046875 258.734375 243.046875 262.882812 243.207031 L 264.480469 243.207031 C 267.992188 243.363281 271.984375 243.363281 275.015625 245.597656 C 275.496094 245.917969 275.65625 246.398438 275.816406 246.714844 C 279.808594 238.738281 283.476562 230.597656 287.148438 222.617188 C 290.023438 216.390625 292.738281 210.007812 295.769531 203.785156 L 296.730469 201.710938 C 298.007812 198.996094 299.285156 196.28125 300.878906 193.730469 C 295.453125 192.929688 289.863281 192.453125 284.277344 192.132812 C 279.007812 191.8125 262.566406 191.015625 260.011719 191.496094 Z M 257.617188 277.679688 C 258.253906 277.359375 259.210938 277.679688 259.371094 278.316406 C 259.53125 278.957031 259.691406 279.59375 259.691406 280.074219 C 259.691406 280.710938 259.371094 281.507812 259.371094 282.308594 C 259.054688 283.902344 258.734375 285.179688 257.933594 286.617188 C 257.457031 287.574219 256.339844 288.054688 255.382812 288.054688 C 254.582031 288.054688 253.785156 287.894531 253.304688 287.253906 C 252.667969 286.457031 252.1875 285.339844 252.507812 284.382812 C 253.304688 281.667969 255.0625 278.957031 257.617188 277.679688 Z M 124.632812 274.964844 C 126.070312 272.414062 129.582031 270.179688 132.613281 270.335938 C 137.246094 270.65625 138.042969 276.882812 133.730469 278.316406 C 131.019531 279.117188 127.507812 278.316406 125.113281 276.882812 C 124.472656 276.402344 124.3125 275.605469 124.632812 274.964844 Z M 77.855469 266.1875 C 77.539062 265.707031 78.015625 265.070312 78.496094 265.230469 C 79.613281 265.550781 80.730469 265.550781 81.847656 265.867188 C 82.964844 266.1875 84.082031 266.824219 85.039062 267.144531 C 87.277344 267.941406 89.828125 268.421875 92.066406 269.378906 C 93.023438 269.699219 93.660156 270.976562 93.5 271.933594 L 93.5 272.09375 C 93.5 272.570312 93.34375 273.050781 93.183594 273.371094 C 92.542969 274.488281 91.105469 275.125 89.828125 274.804688 C 87.433594 274.167969 85.039062 272.414062 82.964844 270.976562 L 82.644531 270.65625 C 81.6875 270.019531 80.730469 269.378906 80.089844 268.582031 C 79.132812 268.101562 78.496094 267.144531 77.855469 266.1875 Z M 161.988281 256.929688 C 161.671875 255.972656 162.945312 255.175781 163.746094 255.972656 C 165.183594 257.410156 166.777344 258.6875 168.214844 259.964844 L 168.375 260.121094 C 169.332031 261.082031 170.929688 263.15625 169.492188 264.433594 C 167.738281 266.1875 165.339844 263.632812 164.382812 262.199219 C 163.265625 260.601562 162.46875 258.847656 161.988281 256.929688 Z M 274.539062 248.472656 C 272.304688 250.707031 268.949219 251.824219 266.078125 252.78125 C 262.566406 253.898438 258.894531 254.378906 255.382812 255.015625 C 251.867188 255.496094 248.355469 255.972656 245.003906 256.453125 C 247.558594 256.453125 250.273438 256.453125 252.828125 256.613281 C 255.859375 256.613281 258.894531 256.769531 261.765625 256.769531 C 264 256.769531 266.554688 256.613281 268.632812 257.410156 C 268.949219 257.570312 269.429688 257.730469 269.589844 258.046875 C 271.34375 254.855469 272.941406 251.664062 274.539062 248.472656 Z M 139.957031 226.765625 C 142.191406 225.96875 144.429688 225.011719 146.824219 225.328125 C 147.460938 225.328125 147.941406 225.96875 147.621094 226.605469 C 146.503906 228.683594 144.589844 229.800781 142.832031 231.074219 L 142.511719 231.394531 C 140.4375 232.832031 138.363281 234.269531 136.125 235.542969 C 132.296875 237.621094 128.941406 231.554688 132.773438 229.800781 C 135.167969 228.683594 137.5625 227.5625 139.957031 226.765625 Z M 180.988281 221.660156 C 184.5 221.820312 188.011719 221.976562 191.523438 222.136719 C 195.515625 222.296875 194.238281 228.523438 190.886719 227.246094 C 187.371094 225.96875 184.019531 224.851562 180.667969 223.574219 C 179.710938 223.253906 179.710938 221.660156 180.988281 221.660156 Z M 91.585938 210.488281 C 92.542969 210.488281 93.34375 210.648438 94.300781 210.648438 L 95.257812 210.804688 C 97.171875 211.125 99.089844 211.285156 101.003906 212.082031 C 104.515625 213.519531 102.601562 219.265625 99.089844 219.105469 C 96.535156 218.945312 94.300781 217.828125 92.066406 216.550781 C 90.148438 215.433594 89.03125 214 87.753906 212.242188 C 87.277344 211.605469 87.914062 210.964844 88.554688 210.964844 C 89.511719 210.804688 90.628906 210.648438 91.585938 210.488281 Z M 266.554688 199.15625 C 265.917969 202.828125 264.480469 206.179688 262.40625 209.050781 C 261.289062 210.488281 259.371094 210.648438 258.414062 209.050781 C 256.816406 206.816406 257.777344 204.421875 259.054688 202.347656 L 259.371094 201.710938 C 259.851562 200.75 260.648438 199.476562 261.605469 198.515625 L 261.605469 198.359375 C 261.925781 194.6875 267.195312 195.324219 266.554688 199.15625 Z M 125.589844 176.011719 C 126.386719 175.214844 127.984375 175.535156 128.304688 176.8125 C 128.625 178.566406 128.941406 180.640625 128.625 182.398438 C 128.464844 183.355469 128.464844 184.472656 127.984375 185.429688 C 127.507812 186.386719 126.707031 187.1875 126.070312 187.984375 C 124.632812 189.421875 121.441406 188.941406 120.960938 186.707031 L 120.960938 186.386719 C 120.800781 185.269531 120.480469 184.152344 120.800781 183.035156 C 120.960938 182.238281 121.597656 181.441406 121.917969 180.640625 L 122.078125 180.480469 C 123.035156 178.566406 124.3125 177.128906 125.589844 176.011719 Z M 247.71875 179.683594 L 248.039062 179.683594 C 250.433594 179.683594 254.902344 180.324219 254.902344 183.355469 C 254.902344 183.992188 254.421875 184.792969 253.625 184.949219 C 252.1875 185.269531 251.230469 184.472656 250.273438 183.515625 C 249.472656 182.875 248.515625 182.238281 247.398438 181.757812 C 246.441406 181.441406 246.441406 179.683594 247.71875 179.683594 Z M 247.71875 179.683594 " fill-opacity="1" fill-rule="evenodd"/></g><path fill="rgb(100%, 100%, 100%)" d="M 255.4375 91.730469 C 253.363281 76.40625 248.414062 61.722656 247.777344 46.082031 C 247.296875 39.378906 246.976562 32.835938 246.5 26.132812 C 246.339844 21.984375 240.910156 20.546875 238.835938 24.21875 C 234.207031 19.109375 225.746094 19.75 219.359375 19.910156 C 182.003906 21.503906 146.402344 46.882812 133.46875 82.3125 C 133.152344 83.109375 133.3125 84.066406 133.628906 84.867188 C 127.5625 104.976562 148.796875 117.742188 163.324219 126.679688 C 169.230469 132.90625 176.09375 138.011719 183.917969 141.523438 C 192.859375 145.671875 202.914062 148.066406 212.8125 148.386719 C 215.046875 148.386719 216.324219 146.632812 216.484375 144.875 C 219.679688 144.078125 225.105469 145.035156 226.703125 141.683594 C 245.699219 133.542969 258.152344 112.476562 255.4375 91.730469 Z M 255.4375 91.730469 " fill-opacity="1" fill-rule="evenodd"/><path fill="rgb(77.249146%, 18.818665%, 18.818665%)" d="M 246.5 37.625 C 246.5 37.144531 247.136719 37.144531 247.296875 37.464844 C 248.574219 40.816406 249.691406 44.007812 250.648438 47.359375 C 251.605469 50.550781 252.246094 53.902344 252.882812 57.253906 C 254 62.679688 254.960938 68.265625 255.757812 73.851562 C 257.515625 72.578125 259.75 72.417969 261.824219 73.375 C 262.78125 73.851562 263.261719 75.128906 262.941406 76.085938 C 262.78125 76.886719 262.464844 77.683594 262.304688 78.480469 C 262.941406 78.960938 263.421875 79.597656 263.738281 80.398438 C 264.699219 82.3125 264.378906 84.386719 263.582031 86.300781 C 263.582031 86.460938 263.738281 86.460938 263.738281 86.621094 C 265.015625 89.015625 264.378906 91.25 263.421875 93.644531 C 262.78125 95.398438 263.101562 97.472656 261.664062 98.75 C 261.1875 100.347656 260.386719 101.941406 259.269531 103.378906 C 258.949219 103.859375 258.632812 104.175781 258.152344 104.496094 C 257.992188 107.050781 257.832031 109.761719 257.195312 112.316406 C 255.121094 122.371094 248.894531 131.148438 240.910156 137.535156 C 233.246094 143.597656 224.148438 147.269531 214.410156 148.546875 C 209.621094 149.183594 204.992188 148.867188 200.203125 148.066406 L 199.5625 147.90625 C 195.253906 147.109375 189.984375 145.832031 186.953125 142.480469 C 185.355469 140.726562 186.3125 136.894531 189.027344 137.375 C 190.464844 137.535156 191.742188 137.851562 193.175781 138.332031 C 194.292969 138.8125 195.414062 139.128906 196.53125 139.449219 C 198.605469 140.085938 200.839844 140.566406 203.074219 140.886719 C 207.703125 141.523438 212.496094 141.363281 217.125 140.40625 C 225.425781 138.8125 233.566406 134.980469 239.792969 129.234375 C 247.136719 122.691406 251.449219 114.074219 252.085938 104.175781 C 252.726562 93.164062 251.449219 81.992188 250.488281 70.980469 C 250.011719 65.554688 249.210938 59.96875 248.414062 54.222656 C 247.617188 48.796875 247.136719 43.210938 246.5 37.625 Z M 181.683594 2.191406 L 182.003906 2.191406 C 196.050781 0.117188 210.898438 0.277344 224.148438 6.023438 C 226.703125 7.140625 229.097656 8.417969 231.492188 10.011719 C 233.246094 9.855469 234.84375 9.695312 236.441406 9.695312 C 238.515625 9.695312 240.589844 10.8125 240.75 12.886719 C 242.667969 13.207031 244.421875 13.84375 245.699219 15.28125 C 246.179688 15.917969 246.5 16.558594 246.65625 17.195312 C 247.933594 17.515625 249.054688 17.992188 250.171875 18.472656 C 251.449219 19.109375 252.246094 21.183594 251.765625 22.621094 C 251.605469 22.941406 251.605469 23.261719 251.449219 23.578125 L 251.289062 23.738281 L 251.289062 23.898438 C 252.40625 25.652344 251.605469 27.886719 250.011719 29.003906 C 248.734375 29.804688 247.296875 30.441406 246.019531 30.761719 C 246.179688 31.398438 246.179688 31.878906 246.339844 32.515625 C 246.339844 32.675781 246.019531 32.996094 245.859375 32.675781 C 246.179688 33.792969 246.65625 34.910156 247.136719 36.027344 C 247.457031 36.667969 246.5 37.304688 246.019531 36.667969 C 245.0625 34.75 244.421875 32.835938 243.464844 30.921875 C 242.667969 30.921875 241.867188 30.601562 241.070312 30.28125 C 240.589844 30.121094 240.113281 29.644531 239.953125 29.164062 C 237.238281 32.515625 232.128906 33.792969 228.140625 34.910156 C 223.828125 36.027344 219.359375 36.824219 215.046875 37.304688 C 207.226562 38.261719 199.5625 38.421875 191.742188 38.742188 C 191.261719 38.742188 190.78125 38.742188 190.144531 38.742188 C 186.953125 41.453125 182.960938 43.210938 178.808594 43.6875 C 176.734375 44.007812 174.179688 43.847656 171.785156 43.371094 C 170.988281 44.167969 169.871094 44.964844 168.59375 45.285156 C 168.433594 49.753906 165.878906 53.902344 162.207031 56.296875 L 162.207031 56.617188 C 163.164062 60.445312 163.164062 64.4375 159.8125 67.148438 C 159.332031 67.46875 158.855469 67.789062 158.375 68.109375 L 158.535156 68.425781 C 160.289062 72.417969 160.769531 76.886719 157.578125 80.238281 C 156.300781 81.515625 153.90625 81.195312 152.945312 79.757812 C 152.945312 79.597656 152.789062 79.597656 152.789062 79.4375 C 152.628906 79.597656 152.628906 79.757812 152.308594 79.917969 C 151.03125 80.398438 150.550781 80.078125 149.433594 79.4375 C 148.476562 78.960938 147.359375 78.480469 146.242188 78.320312 C 145.285156 78.164062 144.484375 77.84375 143.527344 77.84375 C 137.78125 80.078125 134.109375 86.78125 134.90625 93.164062 C 135.386719 96.675781 137.300781 100.027344 140.65625 101.464844 C 142.089844 102.101562 143.847656 102.421875 145.285156 102.101562 C 147.359375 101.785156 148.957031 100.507812 151.191406 101.304688 C 151.988281 101.625 152.628906 102.261719 152.628906 103.21875 C 152.628906 104.65625 152.148438 105.773438 151.351562 106.570312 C 152.945312 107.847656 154.066406 109.605469 155.5 111.039062 C 157.097656 112.796875 158.855469 114.550781 160.609375 116.308594 C 162.367188 117.902344 164.121094 119.339844 166.039062 120.617188 L 166.199219 120.777344 C 168.59375 122.371094 171.625 123.648438 171.785156 127 C 171.785156 127.957031 171.144531 128.914062 170.347656 129.394531 C 167.316406 131.308594 163.960938 128.757812 161.726562 127 C 160.769531 126.203125 159.8125 125.5625 159.011719 124.765625 C 158.375 124.765625 157.734375 124.765625 157.097656 124.445312 C 156.617188 124.289062 156.300781 123.96875 155.820312 123.808594 C 154.382812 124.128906 153.105469 123.808594 152.148438 123.167969 C 150.550781 123.488281 148.957031 123.648438 147.679688 123.328125 C 146.402344 123.011719 145.285156 122.53125 144.328125 121.734375 C 142.410156 122.371094 140.335938 122.210938 138.417969 121.09375 C 137.300781 120.457031 136.34375 119.339844 135.863281 118.222656 C 135.546875 117.902344 135.386719 117.425781 135.386719 116.945312 L 135.386719 116.785156 C 133.789062 116.785156 132.035156 116.308594 130.757812 114.871094 C 129.640625 113.59375 129 112.15625 129 110.722656 C 127.402344 110.242188 125.808594 109.285156 124.691406 107.847656 C 122.773438 105.292969 122.453125 102.261719 123.574219 99.550781 C 123.574219 99.390625 123.414062 99.230469 123.414062 99.070312 C 121.816406 96.835938 120.859375 94.28125 121.019531 91.730469 C 121.019531 91.25 121.019531 90.929688 121.179688 90.453125 C 119.742188 89.652344 118.625 88.21875 118.464844 86.460938 C 118.304688 85.027344 118.941406 83.75 119.742188 82.632812 C 119.261719 81.515625 119.101562 80.398438 119.261719 79.28125 C 119.421875 78.164062 119.742188 77.046875 120.378906 76.246094 C 120.378906 75.929688 120.378906 75.609375 120.378906 75.289062 C 120.378906 74.96875 120.21875 74.652344 120.21875 74.332031 C 119.902344 70.660156 122.453125 67.628906 125.488281 65.875 C 126.285156 65.394531 127.085938 65.074219 128.042969 64.757812 C 128.679688 64.597656 129.640625 64.4375 130.117188 64.117188 C 130.117188 64.117188 130.277344 63.796875 130.4375 63.640625 C 130.4375 63.480469 130.597656 63.320312 130.597656 63 C 130.757812 62.203125 130.597656 61.246094 130.597656 60.445312 C 130.597656 56.617188 130.597656 52.785156 131.074219 48.957031 C 131.875 41.933594 133.628906 35.070312 137.300781 28.847656 C 140.335938 23.738281 144.484375 19.429688 149.117188 15.757812 C 158.375 7.9375 170.1875 3.949219 181.683594 2.191406 Z M 138.101562 89.652344 C 136.824219 86.78125 142.570312 86.621094 144.167969 86.78125 C 147.519531 87.101562 152.945312 88.695312 154.382812 92.207031 C 155.023438 93.644531 153.265625 95.238281 151.828125 94.761719 C 150.550781 94.28125 149.753906 93.324219 148.636719 92.367188 C 148.316406 92.207031 147.996094 91.886719 147.679688 91.730469 C 147.839844 92.207031 148.15625 92.6875 148.476562 93.003906 L 148.636719 93.003906 C 150.234375 94.441406 147.359375 96.835938 146.242188 94.921875 C 145.601562 93.804688 145.445312 92.6875 145.601562 91.570312 C 145.601562 91.25 145.761719 90.929688 145.921875 90.613281 C 145.761719 90.613281 145.761719 90.453125 145.601562 90.453125 L 145.445312 90.292969 C 144.167969 89.652344 138.417969 87.417969 138.578125 89.496094 C 138.578125 89.8125 138.257812 89.8125 138.101562 89.652344 Z M 138.101562 89.652344 " fill-opacity="1" fill-rule="evenodd"/><path fill="rgb(77.249146%, 18.818665%, 18.818665%)" d="M 217.429688 121.910156 C 215.195312 120.953125 213.117188 119.515625 211.683594 117.441406 C 211.203125 116.804688 211.042969 116.003906 211.203125 115.367188 C 211.363281 114.570312 211.839844 113.929688 212.320312 113.453125 C 212.957031 112.972656 213.597656 112.8125 214.394531 112.8125 C 215.035156 112.972656 215.671875 113.292969 216.152344 113.929688 L 216.3125 114.089844 C 217.269531 115.207031 218.386719 116.324219 219.664062 116.964844 C 220.78125 117.761719 222.21875 117.921875 223.65625 117.761719 C 226.367188 117.441406 228.285156 116.003906 230.359375 113.929688 C 230.679688 113.769531 230.839844 113.453125 231.160156 113.132812 C 231.316406 112.8125 231.476562 112.652344 231.796875 112.652344 C 232.117188 112.496094 232.433594 112.496094 232.59375 112.652344 C 232.914062 112.8125 233.074219 112.972656 233.234375 113.132812 C 233.394531 113.292969 233.554688 113.613281 233.394531 113.929688 C 233.394531 116.164062 232.277344 118.082031 230.679688 119.515625 C 228.921875 121.113281 226.527344 122.230469 224.453125 122.707031 C 222.058594 123.1875 219.664062 122.867188 217.429688 121.910156 Z M 225.570312 89.351562 C 228.125 90.949219 231.957031 94.460938 229.242188 98.289062 C 226.050781 101.640625 221.421875 97.8125 219.023438 96.054688 C 216.949219 94.617188 214.554688 98.128906 216.472656 99.726562 C 233.074219 112.015625 239.777344 89.832031 226.847656 87.597656 C 225.410156 87.277344 224.933594 88.875 225.570312 89.351562 Z M 195.875 75.148438 C 196.195312 71.636719 201.464844 70.839844 201.945312 74.351562 C 202.421875 77.382812 201.785156 80.253906 200.507812 83.128906 C 199.230469 85.839844 195.875 84.5625 195.558594 82.171875 C 195.238281 78.820312 195.71875 77.222656 195.875 75.148438 Z M 236.425781 73.550781 C 237.226562 72.59375 238.183594 71.957031 239.460938 72.273438 C 243.449219 73.390625 242.332031 79.136719 240.898438 81.851562 C 240.097656 83.289062 237.703125 83.765625 236.585938 82.488281 C 234.832031 80.253906 233.871094 75.945312 236.265625 73.871094 C 236.265625 73.710938 236.265625 73.710938 236.425781 73.550781 Z M 200.507812 59.824219 L 201.144531 59.667969 C 203.0625 59.347656 205.613281 59.027344 206.890625 60.625 C 207.691406 61.421875 207.851562 63.019531 206.890625 63.816406 C 205.136719 65.253906 203.21875 64.613281 201.144531 64.773438 C 199.390625 64.933594 197.792969 65.09375 196.195312 65.570312 C 192.523438 66.53125 189.652344 68.445312 186.457031 70.519531 C 185.980469 70.839844 185.660156 70.199219 185.820312 69.882812 C 187.574219 66.371094 191.085938 63.496094 194.601562 61.742188 C 196.515625 60.941406 198.429688 60.144531 200.507812 59.824219 Z M 232.753906 58.230469 L 233.234375 58.390625 C 238.5 59.507812 245.367188 61.582031 247.921875 66.847656 C 248.082031 67.648438 247.921875 67.804688 247.761719 67.804688 C 247.761719 67.964844 247.601562 67.964844 247.28125 68.125 C 247.121094 68.125 247.121094 68.125 246.964844 68.125 C 245.84375 67.804688 244.886719 67.488281 244.089844 67.007812 L 243.132812 66.53125 C 242.015625 66.050781 240.898438 65.414062 239.777344 65.09375 C 237.226562 64.296875 234.671875 63.65625 232.117188 63.335938 C 231.476562 63.335938 231 63.019531 230.519531 62.699219 C 230.039062 62.378906 229.722656 61.902344 229.722656 61.421875 C 229.5625 60.625 229.5625 60.144531 230.039062 59.507812 C 230.359375 59.027344 230.839844 58.707031 231.316406 58.390625 C 231.636719 58.230469 232.277344 58.070312 232.753906 58.230469 Z M 232.753906 58.230469 " fill-opacity="1" fill-rule="evenodd"/><path fill="rgb(77.249146%, 18.818665%, 18.818665%)" d="M 255.804688 91.464844 C 251.652344 95.773438 244.949219 96.890625 239.359375 94.65625 C 225.3125 88.753906 232.175781 70.558594 243.03125 65.609375 C 244.308594 65.289062 246.226562 64.492188 247.820312 64.332031 C 247.980469 64.332031 248.300781 64.492188 248.621094 64.332031 C 260.59375 65.609375 263.308594 83.964844 255.804688 91.464844 M 210.625 92.421875 C 205.996094 98.488281 197.535156 100.402344 190.507812 97.53125 C 176.78125 92.261719 181.570312 75.984375 190.988281 69.757812 C 210.945312 62.257812 219.246094 81.25 210.625 92.421875 M 180.769531 79.015625 C 180.769531 79.015625 180.929688 79.015625 180.929688 78.855469 C 180.929688 78.855469 180.929688 79.015625 180.769531 79.015625 M 265.222656 72.472656 C 264.105469 72.472656 262.507812 72.632812 261.550781 73.429688 C 259.316406 65.609375 250.855469 58.585938 243.351562 63.695312 C 237.605469 65.609375 233.292969 69.757812 230.738281 75.1875 C 226.269531 72.632812 219.40625 73.75 215.574219 77.101562 C 213.019531 68.800781 206.953125 65.929688 199.609375 65.449219 C 191.628906 64.171875 183.644531 71.992188 181.089844 78.21875 C 179.015625 78.058594 175.980469 77.261719 173.90625 78.539062 C 161.292969 75.1875 139.105469 73.429688 136.550781 75.1875 C 134.792969 75.824219 133.675781 80.292969 136.230469 80.453125 C 138.464844 80.132812 135.910156 77.261719 138.144531 76.941406 C 150.121094 76.144531 161.773438 78.539062 173.585938 79.65625 C 174.703125 81.089844 178.058594 81.570312 179.8125 80.933594 C 177.257812 91.785156 183.484375 98.964844 192.746094 101.042969 C 207.113281 104.394531 219.722656 91.464844 215.894531 78.058594 C 220.203125 75.824219 225.3125 75.984375 229.941406 77.101562 C 221.960938 106.308594 269.054688 105.03125 261.710938 74.226562 C 266.660156 76.78125 267.777344 72.953125 265.222656 72.472656 " fill-opacity="1" fill-rule="evenodd"/></svg>